<?xml version="1.0" encoding="UTF-8" standalone="no"?>
<svg
   xmlns:dc="http://purl.org/dc/elements/1.1/"
   xmlns:cc="http://creativecommons.org/ns#"
   xmlns:rdf="http://www.w3.org/1999/02/22-rdf-syntax-ns#"
   xmlns:svg="http://www.w3.org/2000/svg"
   xmlns="http://www.w3.org/2000/svg"
   xmlns:xlink="http://www.w3.org/1999/xlink"
   version="1.1"
   id="svg7470"
   height="173.51711"
   width="385.52225">

  <g
     id="g1696">
    <path
       style="font-style:normal;font-variant:normal;font-weight:bold;font-stretch:normal;font-size:214.85466003px;line-height:1.25;font-family:'Times New Roman';-inkscape-font-specification:'Times New Roman, Bold';letter-spacing:0px;word-spacing:0px;fill:#000000;fill-opacity:1;stroke:none;stroke-width:0.1;stroke-miterlimit:2.79999995;stroke-dasharray:none"
       d="m 106.30273,0.00195313 c -0.41429,0.01229097 -0.8246,0.06397387 -1.23828,0.11523437 -0.52568,0.0853 -1.10948,0.095 -1.5625,0.375 -0.25324,0.15651 -0.43952,0.43284999 -0.59375,0.6875 -0.18016,0.29747 -0.1422,0.71039 -0.375,0.96875 -0.46411,0.51506 -1.18669,0.74749 -1.84375,0.96875 -0.55845,0.18805 -1.178117,0.13921 -1.749997,0.28125 -0.49551,0.12307 -1.01381,0.18386 -1.4375,0.46875 -0.24705,0.16612 -0.34255,0.52771 -0.59375,0.6875 -0.50898,0.32378 -1.25182,0.15982 -1.75,0.5 -0.812455,1.3449154 -1.416181,1.66034 -2.541015,2.0585937 -1.681838,0.4723301 -4.295845,2.4263226 -5.38086,3.5488278 -1.215355,1.257353 -2.580078,4.56836 -2.580078,4.56836 -1.117432,0.591887 -1.749806,0.447694 -2.279297,1.105469 -0.667838,2.085048 1.010692,4.386003 -1.753906,4.363281 -1.360822,0.08269 -3.550406,1.375744 -3.589844,2.527343 -0.06417,1.87371 -1.488533,2.268301 -2,-0.640624 -0.0049,-0.443403 -0.64231,0.174105 -0.875,0 -0.45816,-0.342803 0.0717,-1.633052 -0.5,-1.65625 -0.44936,-0.0182 -0.1319,0.951988 -0.46875,1.25 -0.29915,0.26462 -0.88244,0.0547 -1.1875,0.3125 -0.43071,0.36402 -0.22554,1.167228 -0.65625,1.53125 -0.20337,0.171849 -0.53261,0.0922 -0.78125,0.1875 -0.58,0.222249 -1.09951,1.150394 -1.65625,0.875 -0.35211,-0.174182 0.0741,-0.86321 -0.1875,-1.15625 -0.15656,-0.175341 -0.48753,-0.311096 -0.6875,-0.1875 -0.44715,0.27635 0.10161,1.171058 -0.28125,1.53125 -0.133157,0.125285 -0.349243,0.08373 -0.765625,-0.644532 -0.408115,-0.91751 -0.87946,-1.490453 -1.169922,-1.503906 -0.09682,-0.0045 -0.193401,0.0032 -0.283203,0.02344 -0.29045,0.0653 -0.54206,0.333977 -0.6875,0.59375 -0.310667,1.383022 -0.31951,2.322991 -1.5625,2.8125 -0.45042,0.155615 -0.8004,-0.874581 -1.34375,-1.0625 -0.244135,-0.08444 -0.50599,-0.10112 -0.771484,-0.08789 -0.265493,0.01322 -0.534626,0.05634 -0.791016,0.08789 -0.39643,0.0488 -0.80449,0.0921 -1.15625,0.28125 -0.46295,0.248988 -0.88386,0.612918 -1.15625,1.0625 -0.991116,1.705967 -0.654606,3.708708 -0.6875,5.21875 -0.24387,0.49916 -0.8147,0.79921 -1.34375,0.96875 -0.33825,0.1084 -0.77434,0.207689 -1.0625,0 -0.16564,-0.119411 -0.0218,-0.443084 -0.1875,-0.5625 -0.20957,-0.151041 -0.58971,-0.173342 -0.78125,0 -0.24064,0.217759 0.14063,0.74441 -0.09375,0.96875 -2.176513,0.199455 -3.025816,-0.404793 -3.96875,-1.0625 -1.392476,-0.36143 -2.231617,0.739009 -3.875,0.65625 -2.150419,0.03587 -2.110937,0.816514 -1.998047,2.470703 -1.442826,0.98726 -1.916855,0.370894 -2.470703,-0.126953 -0.42909,-0.382641 -0.52182,-1.179553 -1.0625,-1.375 -0.43479,-0.15718 -0.99282,0.0115 -1.34375,0.3125 -0.5508,0.47243 -0.0716,1.87948 -0.78125,2.03125 -0.53588,0.114609 -0.73713,-0.803225 -1.15625,-1.15625 -0.51391,-0.432891 -1.09171,-0.8231 -1.65625,-1.1875 -0.53509,-0.345392 -1.0204,-0.932651 -1.65625,-0.96875 -0.63503,-0.0361 -1.19022,0.47923 -1.75,0.78125 -0.47298,0.255189 -0.98473,0.475076 -1.34375,0.875 -0.48235,0.5373 -0.79523,1.236609 -0.96875,1.9375 -0.35705,1.442188 0.04885,2.989899 -0.09375,4.46875 0.06362,1.418857 -0.05451,3.273673 -0.568359,3.226562 -0.641064,-0.04008 -0.60555,-0.722487 -1.869141,-0.726562 -1.693676,0.11464 -5.158447,1.176072 -6.574219,2.585937 0.795588,0.774615 0.260007,5.829311 1.960938,8.792969 1.221361,2.047901 3.790994,3.471646 6.15039,3.816406 1.809568,0.264417 3.641899,-0.119098 5.46875,-0.203125 0.913427,-0.04201 1.838265,-0.0079 2.72461,0.216797 0.886346,0.224729 1.7376,0.649134 2.373047,1.30664 0.662596,0.685604 1.065853,1.61183 1.138672,2.5625 0.07282,0.950675 -0.182616,1.919329 -0.699219,2.720704 -0.466602,0.723818 -1.136162,0.931267 -1.886719,1.353515 -0.750558,0.422249 -2.329927,0.689788 -3.175781,0.851563 -1.691696,0.323548 -3.680701,0.171035 -5.402344,0.220703 -0.935471,0.02699 -1.875464,0.09512 -2.787109,0.306641 -0.911644,0.211517 -1.48556,0.570825 -2.232422,1.134765 -0.746865,0.56394 -1.660095,1.342297 -1.923828,2.240235 -0.263733,0.89793 -0.168952,1.91444 0.33789,2.701171 0.41178,0.639174 1.063912,1.095182 1.763672,1.392579 0.69976,0.297387 1.451801,0.44835 2.199219,0.58789 1.870881,0.3493 4.806438,1.091621 6.431641,2.082031 1.302105,1.111836 2.436605,2.130121 3.496093,3.275391 0.367583,0.554224 0.587489,1.200939 0.666016,1.861328 0.151855,1.277063 -0.225963,2.583646 -0.908203,3.673828 -0.68224,1.090182 -1.653754,1.977371 -2.716797,2.701172 -3.533144,2.405634 -7.93737,3.018299 -12.125,3.875 -1.499908,0.30685 -3.000674,0.654978 -4.412109,1.248047 -1.411436,0.593069 -2.739422,1.445328 -3.712891,2.626953 -1.015275,1.23237 -1.606789,2.77005 -2.625,4 -0.823679,0.99496 -1.9047632,1.75582 -3.0703125,2.3125 -1.1655493,0.55667 -2.4168144,0.91631 -3.6796875,1.1875 -1.3526109,0.29046 -2.7213158,0.47554 -4.09765625,0.59375 0.01306621,22.60715 0.02783509,47.66043 0.06054687,67.77344 H 107.43555 h 9.23047 20.42578 v -0.0137 l -8.1543,-15.90429 -6.08398,-11.92578 -11.63282,22.83007 -1.73828,3.39649 -11.468748,-22.39649 -29.375,-57.599604 -29.376953,57.599604 -12.28711,24 H 0.09375 L 12.203125,149.35742 68.638672,38.970703 120.05859,139.88086 l 2.75782,-5.41406 11.7207,23 2.55469,4.98828 c 0.002,-21.58979 0,-43.52602 0,-65.17383 h 32.85351 v -0.193359 h 1.15235 c 3.648,-0.384 7.10514,-1.342907 10.36914,-2.878907 12.48,-5.76 21.11914,-18.431437 21.11914,-33.023437 0,-9.983999 -4.03255,-19.00911 -10.56055,-25.537109 C 185.84633,29.997001 177.71322,25.948432 170.85547,25 c -0.53775,-0.441184 -1.08638,-0.868026 -1.66602,-1.257812 -0.73187,-0.492171 -1.64073,-0.684341 -2.4375,-1.0625 -1.60472,-0.76164 -3.21478,-1.54402 -4.75,-2.4375 -1.37009,-0.797361 -2.46571,-2.089993 -3.96875,-2.59375 -0.9511,-0.318761 -2.06217,0.13718 -3,-0.21875 -1.72107,-0.6532 -2.58525,-2.83054 -4.34375,-3.375 -1.01979,-0.315752 -2.15137,0.207098 -3.21875,0.1875 -1.32998,-0.0244 -2.69441,0.006 -3.96875,-0.375 C 136.69476,12.121562 136.9195,7.9823736 132.0332,6.25 c -4.4846,-1.7819127 -5.18058,-1.5497425 -5.78125,-1.7890625 -0.55309,-0.22046 -0.89519,-0.7647 -1.34375,-1.15625 -0.29293,-0.25569 -0.51155,-0.64306 -0.875,-0.78125 -0.69421,-0.26393 -1.47653,-0.0265 -2.21875,0 -0.45293,0.0162 -0.94817,-0.05865 -1.375,0.09375 -0.6328,0.22597 -1.06835,0.77991 -1.625,1.15625 -0.54167,0.3662 -1.06631,1.34442 -1.65625,1.0625 -0.55662,-0.26601 0.0297,-1.23508 -0.1875,-1.8125 -0.23656,-0.62891 -0.6956,-1.16707 -1.15625,-1.65625 -0.14174,-0.15053 -0.31409,-0.31575 -0.5,-0.40625 -0.50708,-0.24677 -1.0932,-0.4065 -1.65625,-0.375 -0.47929,0.0269 -1.03579,0.13174999 -1.34375,0.5 -0.25204,0.30135 0.11224,0.90233 -0.1875,1.15625 -0.22175,0.18785 -0.59929,0.0919 -0.875,0 -0.30633,-0.10212 -0.63684,-0.30493 -0.78125,-0.59375 -0.14441,-0.28882 0.22833,-0.74042 0,-0.96875 -0.29683,-0.29683 -0.83625,0.0709 -1.25,0 -0.57374,-0.0983 -1.08668,-0.44227 -1.65625,-0.5625 -0.42895,-0.1004285 -0.84742,-0.12752539 -1.26172,-0.11523437 z m 4.20118,3.99414067 c 0.29407,-0.051496 0.70061,0.1075991 1.27148,0.5898437 1.13076,0.9552061 1.62773,1.7100269 1.28906,2.5625 0.11354,0.56039 0.66014,0.92875 1.34375,0.90625 1.05437,-0.0347 1.1423,0.1916273 0.9375,2.6562505 -0.12287,1.478778 -0.57604,3.062777 -1,3.53125 -0.54796,0.605487 -0.62497,1.111218 -0.25,1.78125 0.70489,1.259678 1.5625,1.218108 1.5625,-0.09375 0,-0.581712 0.99747,-2.082994 0.96875,-3.65625 0.10766,-1.828904 0.6982,-2.273756 1.375,-2.6250005 2.36082,-0.5585181 0.7802,0.4984875 1.03125,1.3750005 0.29458,0.863526 0.9264,2.432895 0.9375,3.78125 l 0.0312,2.4375 c 1.6019,-0.595796 1.90011,-4.857104 2.85743,-3.0625 0.98533,1.84711 1.18266,4.911349 1.64257,6.0625 0.30805,0 2.57245,-0.970704 2.39258,-1.439454 -0.17988,-0.468741 -2.06157,-0.761795 -1.43555,-1.53125 1.50901,-1.887154 1.0725,-2.750349 0.86719,-4.474609 -0.0892,-0.749431 -0.36555,-0.999958 0.45703,-1.117187 0.9682,-0.137993 1.35596,0.992046 1.8125,2.6875 0.34881,0.125809 1.08429,0.654199 1.00782,0.05664 -0.25791,-2.015396 1.30958,-2.950285 2.43359,-2.345703 1.4361,0.684448 1.70634,5.532242 4.02734,6.742187 0.19447,0.101377 0.45252,0.0343 0.65625,-0.04687 1.1139,-0.443778 1.86761,-1.467802 2.78125,-2.28125 0.75379,-0.67113 1.18423,-0.955903 1.5625,-0.9375 0.22696,0.01104 0.42965,0.129748 0.6875,0.34375 0.54585,0.453009 1.59197,0.573897 3.03125,0.34375 1.54324,-0.246782 2.51609,-0.11097 3.34375,0.46875 0.64316,0.450489 1.71014,0.8125 2.375,0.8125 1.91316,0 8.45024,2.958639 10.4375,4.71875 0.89272,0.790669 2.23243,1.271287 3.78125,1.375 1.44127,0.09651 2.32517,0.509707 2.59961,1.113281 0.0467,0.10261 0.0725,0.211331 0.084,0.324219 0.001,0.01744 0.003,0.03505 0.004,0.05273 0.005,0.09949 -0.004,0.203925 -0.0273,0.310547 -0.0135,0.05727 -0.0368,0.116598 -0.0586,0.175781 -0.0281,0.08 -0.0557,0.158807 -0.0996,0.242188 -0.0818,0.151772 -0.1806,0.307462 -0.31446,0.46875 -0.34742,0.41862 -0.3768,0.971869 -0.0625,1.46875 0.42184,0.666979 0.993,0.80035 1,0.03125 0.0202,-2.223021 11.6763,0.976038 14.11133,2.646484 2.26788,1.555787 3.31545,2.603649 4.35352,3.34375 0.2625,0.981282 -17.52434,5.441915 -12.1836,-1.333984 1.93244,-2.3999 -11.58047,-2.299566 -13.94336,-3.396485 -0.12667,-0.0588 -0.22998,-0.124719 -0.3125,-0.193359 -0.0827,-0.06899 -0.1455,-0.141372 -0.18945,-0.21875 -0.61532,-1.083299 2.28297,-2.913406 0.74805,-3.38086 -3.35304,-1.021152 -7.00902,1.370758 -10.19922,2.558594 -0.31198,0.127965 -0.58145,0.210856 -0.83203,0.273438 -0.0483,0.01207 -0.0984,0.02534 -0.14453,0.03516 -0.2321,0.04924 -0.44085,0.0739 -0.62305,0.07031 -0.0879,-0.0016 -0.17065,-0.0088 -0.24805,-0.02148 -0.018,-0.003 -0.0392,-0.0023 -0.0566,-0.0059 -0.0988,-0.0199 -0.18718,-0.05077 -0.26953,-0.08789 -0.0337,-0.01525 -0.0626,-0.0348 -0.0937,-0.05273 -0.0446,-0.02561 -0.0892,-0.05123 -0.12891,-0.08203 -0.0346,-0.02694 -0.0667,-0.05726 -0.0976,-0.08789 -0.0214,-0.02107 -0.0408,-0.04368 -0.0606,-0.06641 -0.0935,-0.107694 -0.17213,-0.229398 -0.23437,-0.369141 -0.0714,-0.159439 -0.12299,-0.337711 -0.16407,-0.527344 -0.0269,-0.124779 -0.0447,-0.25727 -0.0625,-0.390625 -0.009,-0.06659 -0.02,-0.131141 -0.0273,-0.199219 -0.0571,-0.536918 -0.0759,-1.106706 -0.14062,-1.613281 -0.14529,-1.137064 -0.55226,-1.93079 -2.33985,-1.144531 -7.11918,4.467689 2.30021,-8.445515 -4.79883,-2.755859 -1.0618,1.392721 -2.10826,2.683447 -3.14062,3.90039 -0.006,0.0073 -0.0134,0.01422 -0.0195,0.02148 -0.44637,0.52581 -0.88851,1.029006 -1.32813,1.521485 -0.0983,0.110122 -0.19697,0.22359 -0.29492,0.332031 -0.40224,0.445381 -0.79953,0.872122 -1.19531,1.289063 -0.13203,0.139053 -0.26326,0.278199 -0.39453,0.414062 -0.39897,0.413051 -0.79599,0.811849 -1.1875,1.195313 -0.091,0.08904 -0.18095,0.176237 -0.27149,0.263672 -0.41653,0.402477 -0.82919,0.791866 -1.23633,1.160156 -0.0653,0.05907 -0.13021,0.113696 -0.19531,0.171875 -0.42735,0.382266 -0.85164,0.751829 -1.26758,1.095703 l -0.002,0.002 c -0.003,0.0021 -0.005,0.0037 -0.008,0.0059 -1.30051,1.074483 -2.5379,1.951333 -3.70899,2.642578 -0.0791,0.0466 -0.16179,0.101659 -0.24023,0.146485 -0.27959,0.160075 -0.54929,0.294243 -0.82031,0.431641 -0.15096,0.07634 -0.30492,0.15925 -0.45313,0.228515 -0.23496,0.110112 -0.46161,0.200729 -0.68945,0.292969 -0.18695,0.07544 -0.37465,0.151504 -0.55664,0.214844 -0.19965,0.06973 -0.39439,0.126547 -0.58789,0.18164 -0.19076,0.05406 -0.37984,0.104779 -0.56446,0.144532 -0.18077,0.03916 -0.35849,0.07034 -0.5332,0.0957 -0.18814,0.02708 -0.37183,0.04368 -0.55273,0.05469 -0.20027,0.0124 -0.40068,0.02893 -0.5918,0.02148 -0.0312,-0.0012 -0.0628,-0.0021 -0.0937,-0.0039 -0.2709,-0.01528 -0.53176,-0.05326 -0.7832,-0.109375 -0.0427,-0.0095 -0.0849,-0.01857 -0.12696,-0.0293 -0.24521,-0.06234 -0.48179,-0.143435 -0.70703,-0.246093 -0.0318,-0.01453 -0.0624,-0.03155 -0.0937,-0.04687 -0.23311,-0.113629 -0.45784,-0.243953 -0.66797,-0.402344 -0.92421,-0.902175 -1.788,-1.795896 -2.62695,-2.679688 -0.27047,-0.285178 -0.53642,-0.567336 -0.79883,-0.849609 -0.42501,-0.456783 -0.82785,-0.90293 -1.23242,-1.349609 -1.92246,-2.125085 -3.627,-4.096786 -5.17383,-5.830078 -0.10554,-0.118263 -0.22401,-0.25536 -0.32812,-0.371094 -4.94694,-5.499019 -8.332195,-8.128757 -12.339847,-3.003906 -4.449871,5.297302 -10.261364,23.587185 -17.5,21.59375 -4.997384,-1.985082 2.547073,-4.784785 0.71875,-5.875 -9.190794,-1.0466 6.613791,-6.474 -2.15625,-6.78125 -7.857153,0.917649 -9.687569,3.408849 -12.125,5.15625 -6.211361,4.529834 -6.344975,12.821927 -21.4375,16.96875 -13.352125,4.582425 -16.373341,0.799763 -18.392578,-6.431641 -0.607769,-2.245773 3.655431,2.017519 5.173828,1.400391 1.0139,-0.54262 1.1177,-1.073071 1.0625,-5.125 -0.0668,-4.89743 0.15673,-5.6875 1.65625,-5.6875 0.54349,0 1.12646,-0.34661 1.28125,-0.75 0.434292,-1.213707 1.541836,-0.516269 3.603516,0.261718 2.888233,1.173507 3.193076,2.190415 3.382812,3.335938 0.608389,3.914096 1.349589,5.516489 2.074219,3.847656 0.890245,-2.05025 2.194331,2.08096 3.292969,2.873047 2.230316,0.428848 -2.104347,-5.330213 -1.59961,-8.003906 0.257253,-1.362721 0.636063,-2.443396 2.246094,-3.501953 4.112629,-2.514573 6.434339,1.163111 10.429688,1.226562 1.112502,-0.0176 3.524362,-0.33647 3.039062,-1.382812 -4.488708,-8.802653 0.8393,-8.3477 4.15625,-6.8125 3.579914,1.394966 11.183847,-3.126404 12.275391,0.849609 0.378883,1.380104 2.661487,0.171747 3.410156,-0.716797 1.472591,-1.747718 -1.704214,-6.739501 0.251953,-6.851562 1.514895,0.05065 2.733414,0.846101 2.814453,0.08203 0.250946,-2.366027 0.07914,-4.513195 1.123047,-3.988281 0.702056,0.353017 1.593691,1.402002 2.214844,0.765624 0.62115,-0.636375 0.19674,-3.083584 0.394531,-4.027343 0.111833,-2.265886 6.427536,-7.3462714 7.330078,-6.777344 0.423721,0.417963 0.468345,0.6248899 0.472656,1.4707031 0.225246,0.1790391 0.261098,0.1672896 0.423829,0.234375 0.07858,-0.9374416 1.225427,-1.7419369 1.539062,-1.5097656 0.527471,0.390466 0.360725,1.5114355 -0.53125,1.875 -1.05515,0.4300738 -1.685349,1.7609455 -1.099609,2.9101565 2.019599,3.235238 4.016151,3.188516 3.880859,0.277344 -0.17568,-2.466251 -0.852722,-2.376569 1.492188,-3.5117192 4.120059,-2.3934976 3.459669,0.016209 6.109379,-0.28125 1.23849,-0.2796939 1.45684,0.8829929 0.0547,2.9804692 -0.45479,0.575018 1.4561,0.578808 1.59375,-0.65625 0.41013,-4.0347154 1.05442,-2.7410018 1.625,-4.0937505 0.36252,-0.8594709 0.24472,-2.9041054 1.12696,-3.0585937 z M 19.333984,46.742188 C 10.190622,50.351278 0,48.619141 0,48.619141 c 0,0 0.0068989,24.565891 0.0234375,54.271479 0.58219441,-0.0934 1.1606863,-0.20165 1.7304687,-0.35546 C 3.343681,102.10598 4.8896906,101.35863 6,100.14258 c 1.3199319,-1.445642 1.927641,-3.431581 3.25,-4.875002 0.730629,-0.797518 1.654074,-1.398391 2.625,-1.875 2.295148,-1.126645 4.852361,-1.583675 7.375,-2 4.198942,-0.692974 8.463818,-1.322507 12.375,-3 0.607065,-0.260368 1.205556,-0.546797 1.751953,-0.917969 0.546398,-0.371172 1.041114,-0.831347 1.392578,-1.390625 0.351465,-0.559277 0.850325,-0.759831 0.50586,-1.882812 -0.344465,-1.122981 -0.453389,-3.707723 -3.003141,-4.243183 -1.534056,-0.6824 -2.702924,-0.971923 -4.002719,-1.260723 -1.299795,-0.2888 -2.634182,-0.545831 -3.791015,-1.205078 -1.084942,-0.618281 -1.968716,-1.582514 -2.482422,-2.720704 -0.513706,-1.138189 -0.652731,-2.443754 -0.378906,-3.662109 0.251249,-1.11791 0.845072,-2.153722 1.662109,-2.957031 0.817033,-0.80331 1.852808,-1.374638 2.960937,-1.666016 1.282349,-0.337188 4.568834,-0.740318 5.892578,-0.664062 1.323746,0.07626 2.657773,0.190846 3.970704,0.0059 0.635765,-0.08971 1.269013,-0.253175 1.826172,-0.572266 0.557158,-0.319091 1.035376,-0.805182 1.255859,-1.408203 0.164656,-0.450343 0.178204,-0.95218 0.05664,-1.416015 -0.121564,-0.463837 -0.377486,-0.889727 -0.71875,-1.226563 -0.527066,-0.520223 -1.243562,-0.819193 -1.97461,-0.9375 -0.731049,-0.118389 -1.478738,-0.06605 -2.210937,0.04492 -1.464396,0.22194 -2.934084,0.675341 -4.398438,0.453125 -1.537425,-0.233304 -4.819117,-0.760373 -5.857422,-1.917969 -1.038305,-1.157596 -1.8234,-2.51445 -2.685547,-3.808594 -0.807794,-1.212592 -1.017225,-7.366221 -1.65625,-8.214843 -0.05552,-0.07373 -0.19827,-0.09762 -0.40625,-0.08203 z M 137.0918,48.896484 h 29.39843 c 4.224,0 7.10268,1.921032 8.63868,3.457032 1.344,1.344 3.64843,4.416031 3.64843,8.832031 0,4.8 -2.87892,9.214769 -7.29492,11.134765 v 0.19336 c -1.536,0.768 -3.26416,1.150395 -4.99219,1.15039 H 137.0918 Z m -14.15039,107.474606 6.11914,12 2.56054,5 h -17.36132 l 2.56054,-5 z"
       id="path125" />
    <flowRoot
       xml:space="preserve"
       id="flowRoot113"
       style="font-style:normal;font-variant:normal;font-weight:normal;font-stretch:normal;font-size:40px;line-height:1.25;font-family:'Times New Roman';-inkscape-font-specification:'Times New Roman, ';letter-spacing:0px;word-spacing:0px;fill:#000000;fill-opacity:1;stroke:none"
       transform="translate(8.849284,-0.27906731)"><flowRegion
         id="flowRegion115"
         style="font-style:normal;font-variant:normal;font-weight:normal;font-stretch:normal;font-family:'Times New Roman';-inkscape-font-specification:'Times New Roman, '"><rect
           id="rect117"
           width="75.961792"
           height="94.640915"
           x="-87.480583"
           y="53.487167"
           style="font-style:normal;font-variant:normal;font-weight:normal;font-stretch:normal;font-family:'Times New Roman';-inkscape-font-specification:'Times New Roman, '" /></flowRegion><flowPara
         id="flowPara119" /></flowRoot>    <flowRoot
       xml:space="preserve"
       id="flowRoot4655"
       style="font-style:normal;font-weight:normal;font-size:40px;line-height:1.25;font-family:sans-serif;letter-spacing:0px;word-spacing:0px;fill:#000000;fill-opacity:1;stroke:none"
       transform="translate(8.849284,-0.27906731)"><flowRegion
         id="flowRegion4657"><rect
           id="rect4659"
           width="261.52115"
           height="53.272823"
           x="158.49767"
           y="139.18991" /></flowRegion><flowPara
         id="flowPara4661" /></flowRoot>    <path
       id="path1625"
       style="font-style:normal;font-variant:normal;font-weight:normal;font-stretch:normal;font-size:40px;line-height:1.25;font-family:Azonix;-inkscape-font-specification:Azonix;letter-spacing:0px;word-spacing:0px;fill:#000000;fill-opacity:1;stroke:none"
       d="m 165.09411,123.80889 c 0.76,-1.16 1.2,-2.56 1.2,-4.08 0,-4.16 -3.4,-7.56 -7.56,-7.56 h -17.64 v 28 h 19.08 c 4.92,0 8.92,-4 8.92,-8.92 0,-3.12 -1.6,-5.84 -4,-7.44 z m -19,-6.64 h 12.68 c 1.4,0 2.56,1.16 2.56,2.56 0,1.4 -1.16,2.56 -2.56,2.56 h -12.68 z m 14.08,18 h -14.08 v -7.88 h 14.08 c 2.16,0 3.92,1.76 3.92,3.92 0,2.16 -1.76,3.92 -3.92,3.92 z" />
    <path
       id="path1627"
       style="font-style:normal;font-variant:normal;font-weight:normal;font-stretch:normal;font-size:40px;line-height:1.25;font-family:Azonix;-inkscape-font-specification:Azonix;letter-spacing:0px;word-spacing:0px;fill:#000000;fill-opacity:1;stroke:none"
       d="m 196.10974,123.80889 c 0.76,-1.16 1.2,-2.56 1.2,-4.08 0,-4.16 -3.4,-7.56 -7.56,-7.56 h -17.64 v 28 h 19.08 c 4.92,0 8.92,-4 8.92,-8.92 0,-3.12 -1.6,-5.84 -4,-7.44 z m -19,-6.64 h 12.68 c 1.4,0 2.56,1.16 2.56,2.56 0,1.4 -1.16,2.56 -2.56,2.56 h -12.68 z m 14.08,18 h -14.08 v -7.88 h 14.08 c 2.16,0 3.92,1.76 3.92,3.92 0,2.16 -1.76,3.92 -3.92,3.92 z" />
    <path
       id="path1629"
       style="font-style:normal;font-variant:normal;font-weight:normal;font-stretch:normal;font-size:40px;line-height:1.25;font-family:Azonix;-inkscape-font-specification:Azonix;letter-spacing:0px;word-spacing:0px;fill:#000000;fill-opacity:1;stroke:none"
       d="m 227.56536,135.16889 -11.72,-23 -11.72,23 -2.56,5 h 5.6 l 2.56,-5 6.12,-12 6.12,12 2.56,5 h 5.6 z" />
    <path
       id="path1631"
       style="font-style:normal;font-variant:normal;font-weight:normal;font-stretch:normal;font-size:40px;line-height:1.25;font-family:Azonix;-inkscape-font-specification:Azonix;letter-spacing:0px;word-spacing:0px;fill:#000000;fill-opacity:1;stroke:none"
       d="m 232.50036,112.16889 v 28 h 14 c 3.84,0 7.32,-1.56 9.84,-4.12 0.28,-0.28 0.56,-0.56 0.8,-0.84 2.08,-2.44 3.32,-5.6 3.32,-9.04 0,-7.72 -6.28,-13.96 -14,-13.96 z m 4.96,5.04 h 9 c 4.96,0 9,4.04 9,9 0,4.96 -4.04,9 -9,9 h -9 z" />
    <path
       id="path1633"
       style="font-style:normal;font-variant:normal;font-weight:normal;font-stretch:normal;font-size:40px;line-height:1.25;font-family:Azonix;-inkscape-font-specification:Azonix;letter-spacing:0px;word-spacing:0px;fill:#000000;fill-opacity:1;stroke:none"
       d="m 269.53161,140.16889 v -28 h -5 v 28 z" />
    <path
       id="path1635"
       style="font-style:normal;font-variant:normal;font-weight:normal;font-stretch:normal;font-size:40px;line-height:1.25;font-family:Azonix;-inkscape-font-specification:Azonix;letter-spacing:0px;word-spacing:0px;fill:#000000;fill-opacity:1;stroke:none"
       d="m 297.95599,135.16889 -11.72,-23 -11.72,23 -2.56,5 h 5.6 l 2.56,-5 6.12,-12 6.12,12 2.56,5 h 5.6 z" />
    <path
       id="path1644"
       style="font-style:normal;font-variant:normal;font-weight:normal;font-stretch:normal;font-size:40px;line-height:1.25;font-family:Azonix;-inkscape-font-specification:Azonix;letter-spacing:0px;word-spacing:0px;fill:#000000;fill-opacity:1;stroke:none"
       d="m 166.65851,153.1971 v -0.16 c 0,-4.16 -3.4,-7.56 -7.56,-7.56 h -11.36 c -4.16,0 -7.52,3.4 -7.52,7.56 v 0.16 c 0,1.6 0.48,3.08 1.32,4.28 0.28,0.44 0.6,0.84 0.96,1.2 1.36,1.32 3.2,2.12 5.24,2.12 h 10.08 c 2.12,0 3.88,1.72 3.88,3.84 0,2.12 -1.76,3.84 -3.88,3.84 h -8.76 c -2.12,0 -3.84,-1.72 -3.84,-3.84 h -5 c 0,4.88 3.96,8.84 8.84,8.84 h 8.76 c 4.88,0 8.84,-3.96 8.84,-8.84 0,-2.12 -0.76,-4.08 -2,-5.6 -0.12,-0.12 -0.2,-0.24 -0.32,-0.36 -1.6,-1.76 -3.92,-2.88 -6.52,-2.88 h -10.08 c -1.4,0 -2.56,-1.16 -2.56,-2.56 v -0.16 c 0,-1.4 1.16,-2.56 2.56,-2.56 h 11.36 c 1.4,0 2.56,1.16 2.56,2.56 v 0.16 z" />
    <path
       id="path1646"
       style="font-style:normal;font-variant:normal;font-weight:normal;font-stretch:normal;font-size:40px;line-height:1.25;font-family:Azonix;-inkscape-font-specification:Azonix;letter-spacing:0px;word-spacing:0px;fill:#000000;fill-opacity:1;stroke:none"
       d="m 197.12726,153.1971 v -0.16 c 0,-4.16 -3.4,-7.56 -7.56,-7.56 h -11.36 c -4.16,0 -7.52,3.4 -7.52,7.56 v 0.16 c 0,1.6 0.48,3.08 1.32,4.28 0.28,0.44 0.6,0.84 0.96,1.2 1.36,1.32 3.2,2.12 5.24,2.12 h 10.08 c 2.12,0 3.88,1.72 3.88,3.84 0,2.12 -1.76,3.84 -3.88,3.84 h -8.76 c -2.12,0 -3.84,-1.72 -3.84,-3.84 h -5 c 0,4.88 3.96,8.84 8.84,8.84 h 8.76 c 4.88,0 8.84,-3.96 8.84,-8.84 0,-2.12 -0.76,-4.08 -2,-5.6 -0.12,-0.12 -0.2,-0.24 -0.32,-0.36 -1.6,-1.76 -3.92,-2.88 -6.52,-2.88 h -10.08 c -1.4,0 -2.56,-1.16 -2.56,-2.56 v -0.16 c 0,-1.4 1.16,-2.56 2.56,-2.56 h 11.36 c 1.4,0 2.56,1.16 2.56,2.56 v 0.16 z" />
    <path
       id="path1648"
       style="font-style:normal;font-variant:normal;font-weight:normal;font-stretch:normal;font-size:40px;line-height:1.25;font-family:Azonix;-inkscape-font-specification:Azonix;letter-spacing:0px;word-spacing:0px;fill:#000000;fill-opacity:1;stroke:none"
       d="m 208.67601,150.4771 h 20.44 v -5 h -20.44 c -4.16,0 -7.52,3.4 -7.52,7.56 v 12.88 c 0,4.16 3.36,7.56 7.52,7.56 h 20.44 v -5 h -20.44 c -1.4,0 -2.56,-1.16 -2.56,-2.56 v -5.28 h 18 v -5 h -18 v -2.6 c 0,-1.4 1.16,-2.56 2.56,-2.56 z" />
    <path
       id="path1650"
       style="font-style:normal;font-variant:normal;font-weight:normal;font-stretch:normal;font-size:40px;line-height:1.25;font-family:Azonix;-inkscape-font-specification:Azonix;letter-spacing:0px;word-spacing:0px;fill:#000000;fill-opacity:1;stroke:none"
       d="m 244.95976,150.4771 h 14 v -5 h -14 c -7.72,0 -14,6.28 -14,14 0,7.72 6.28,14 14,14 h 14 v -15.36 h -14 v 5 h 9 v 5.36 h -9 c -4.96,0 -9,-4.04 -9,-9 0,-4.96 4.04,-9 9,-9 z" />
    <path
       id="path1652"
       style="font-style:normal;font-variant:normal;font-weight:normal;font-stretch:normal;font-size:40px;line-height:1.25;font-family:Azonix;-inkscape-font-specification:Azonix;letter-spacing:0px;word-spacing:0px;fill:#000000;fill-opacity:1;stroke:none"
       d="m 276.99101,150.4771 h 14 v -5 h -14 c -7.72,0 -14,6.28 -14,14 0,7.72 6.28,14 14,14 h 14 v -15.36 h -14 v 5 h 9 v 5.36 h -9 c -4.96,0 -9,-4.04 -9,-9 0,-4.96 4.04,-9 9,-9 z" />
    <path
       id="path1654"
       style="font-style:normal;font-variant:normal;font-weight:normal;font-stretch:normal;font-size:40px;line-height:1.25;font-family:Azonix;-inkscape-font-specification:Azonix;letter-spacing:0px;word-spacing:0px;fill:#000000;fill-opacity:1;stroke:none"
       d="m 300.02226,173.4771 v -28 h -5 v 28 z" />
    <path
       id="path1656"
       style="font-style:normal;font-variant:normal;font-weight:normal;font-stretch:normal;font-size:40px;line-height:1.25;font-family:Azonix;-inkscape-font-specification:Azonix;letter-spacing:0px;word-spacing:0px;fill:#000000;fill-opacity:1;stroke:none"
       d="m 328.44664,168.4771 -11.72,-23 -11.72,23 -2.56,5 h 5.6 l 2.56,-5 6.12,-12 6.12,12 2.56,5 h 5.6 z" />
    <path
       id="path1658"
       style="font-style:normal;font-variant:normal;font-weight:normal;font-stretch:normal;font-size:40px;line-height:1.25;font-family:Azonix;-inkscape-font-specification:Azonix;letter-spacing:0px;word-spacing:0px;fill:#000000;fill-opacity:1;stroke:none"
       d="m 325.49101,145.5171 v 5 h 11.48 v 23 h 5 v -23 h 11.48 v -5 z" />
    <path
       id="path1660"
       style="font-style:normal;font-variant:normal;font-weight:normal;font-stretch:normal;font-size:40px;line-height:1.25;font-family:Azonix;-inkscape-font-specification:Azonix;letter-spacing:0px;word-spacing:0px;fill:#000000;fill-opacity:1;stroke:none"
       d="m 365.08226,150.4771 h 20.44 v -5 h -20.44 c -4.16,0 -7.52,3.4 -7.52,7.56 v 12.88 c 0,4.16 3.36,7.56 7.52,7.56 h 20.44 v -5 h -20.44 c -1.4,0 -2.56,-1.16 -2.56,-2.56 v -5.28 h 18 v -5 h -18 v -2.6 c 0,-1.4 1.16,-2.56 2.56,-2.56 z" />
  </g>
</svg>
