<?xml version="1.0" encoding="UTF-8" standalone="no"?>
<!-- Generator: Adobe Illustrator 19.0.0, SVG Export Plug-In . SVG Version: 6.00 Build 0)  -->

<svg
   xmlns:dc="http://purl.org/dc/elements/1.1/"
   xmlns:cc="http://creativecommons.org/ns#"
   xmlns:rdf="http://www.w3.org/1999/02/22-rdf-syntax-ns#"
   xmlns:svg="http://www.w3.org/2000/svg"
   xmlns="http://www.w3.org/2000/svg"
   xmlns:sodipodi="http://sodipodi.sourceforge.net/DTD/sodipodi-0.dtd"
   xmlns:inkscape="http://www.inkscape.org/namespaces/inkscape"
   version="1.1"
   id="Layer_1"
   x="0px"
   y="0px"
   viewBox="0 0 395.39999 56.399998"
   xml:space="preserve"
   sodipodi:docname="mountainfooter2.svg"
   inkscape:version="0.92.4 (5da689c313, 2019-01-14)"
   width="395.39999"
   height="56.399998"><metadata
   id="metadata78"><rdf:RDF><cc:Work
       rdf:about=""><dc:format>image/svg+xml</dc:format><dc:type
         rdf:resource="http://purl.org/dc/dcmitype/StillImage" /><dc:title></dc:title></cc:Work></rdf:RDF></metadata><defs
   id="defs76">
	
	

		
		
	
			
			
			
			
			
			
			
			
			
			
		</defs><sodipodi:namedview
   pagecolor="#ffffff"
   bordercolor="#666666"
   borderopacity="1"
   objecttolerance="10"
   gridtolerance="10"
   guidetolerance="10"
   inkscape:pageopacity="0"
   inkscape:pageshadow="2"
   inkscape:window-width="1920"
   inkscape:window-height="1017"
   id="namedview74"
   showgrid="false"
   inkscape:zoom="5.6568543"
   inkscape:cx="339.20845"
   inkscape:cy="-0.011184661"
   inkscape:window-x="-8"
   inkscape:window-y="-8"
   inkscape:window-maximized="1"
   inkscape:current-layer="Layer_1"
   fit-margin-top="0"
   fit-margin-left="0"
   fit-margin-right="0"
   fit-margin-bottom="0" />
<style
   type="text/css"
   id="style2">
	.st0{fill:#EE7D00;}
	.st1{fill:#123274;}
</style>
<path
   style="fill:#4fe85e;fill-opacity:1;stroke:none;stroke-width:3.5999999;stroke-miterlimit:4;stroke-dasharray:none;stroke-opacity:0.63333333"
   inkscape:connector-curvature="0"
   d="m 395.00001,53.6 -0.5,-1.4 -0.2,-1.1 -4.5,-7.2 -9.6,5 -3.5,0.4 3.9,-3.5 -4.6,-2.2 -10.7,-10.1 -4.8,-6.3 -5.8,-1.8 -5.5,-2.2 -11.7,2.3 -13,3.5 -14.6,2.1 -7.3,0.1 2.7,5.1 -1.2,0.7 -5.4,-5.6 -8.5,-4.1 -4,-6.5 -5.8,-5 -7.4,-12.1 -0.1,-0.2 -5,-3.5 -7.5,13 -16.3,11.9 -28.7,19.7 v -1.7 l 21.1,-20.1 -18.9,-1.4 -4.6,2 -13.1,-3.6 -8.1,-3.6 -6.6,-2.8 -9.7,3.7 5,7.1 V 27 l -8.4,-8.9 -15.3,-6 -25.5,17.4 -32.800005,9 9.500005,5.8 -1.4,2 -14.800005,-7.5 -8.5,-2.4 -6.8,-2 -0.3,0.2 c -0.1,0.1 -10.4,5.6 -14.8,6.8 l -27.2,4.9 -6.5,0.2 -8.6,-0.2 -0.2,0.1 c 0,0 -1.9,1 -5.1,1.9 -0.8,0 -13.8096764,7.422452 -13.7999996044011,6.799998 l 0.0013300044,5.3 H 395.40001 Z"
   class="st1"
   id="XMLID_41_"
   sodipodi:nodetypes="cccccccccccccccccccccccccccccccccccccccccccccccccccccccccc" />
</svg>