<?xml version="1.0" encoding="UTF-8" standalone="no"?>
<svg
   xmlns:dc="http://purl.org/dc/elements/1.1/"
   xmlns:cc="http://creativecommons.org/ns#"
   xmlns:rdf="http://www.w3.org/1999/02/22-rdf-syntax-ns#"
   xmlns:svg="http://www.w3.org/2000/svg"
   xmlns="http://www.w3.org/2000/svg"
   style="fill:#000000"
   id="svg24"
   xml:space="preserve"
   enable-background="new 0 0 80.702 100"
   viewBox="0 0 19.36848 24"
   y="0px"
   x="0px"
   version="1.0"
   width="24"
   height="24"><metadata
     id="metadata30"><rdf:RDF><cc:Work
         rdf:about=""><dc:format>image/svg+xml</dc:format><dc:type
           rdf:resource="http://purl.org/dc/dcmitype/StillImage" /><dc:title></dc:title></cc:Work></rdf:RDF></metadata><defs
     id="defs28" /><g
     transform="matrix(0.24782533,0,0,0.24,-0.31576,0)"
     id="g43"><path
       d="m 20.891,50 c 0,5.759 -4.681,10.44 -10.451,10.44 C 4.681,60.44 0,55.759 0,50 0,44.23 4.681,39.555 10.44,39.555 c 5.77,0 10.451,4.675 10.451,10.445 z"
       id="path2" /><g
       id="g6"><polygon
         points="80.702,42.928 27.716,46.84 27.716,53.16 80.702,57.072 "
         id="polygon4" /></g><g
       id="g10"><polygon
         points="31.208,0 16.367,33.47 21.823,36.636 43.444,7.072 "
         id="polygon8" /></g><g
       id="g14"><polygon
         points="59.16,13.679 23.844,38.646 26.987,44.118 66.232,25.932 "
         id="polygon12" /></g><g
       id="g18"><polygon
         points="31.208,100 16.367,66.524 21.823,63.359 43.444,92.928 "
         id="polygon16" /></g><g
       id="g22"><polygon
         points="59.16,86.315 23.844,61.35 26.987,55.883 66.232,74.068 "
         id="polygon20" /></g></g></svg>