<?xml version="1.0" encoding="UTF-8" standalone="no"?>
<svg
   xmlns:dc="http://purl.org/dc/elements/1.1/"
   xmlns:cc="http://creativecommons.org/ns#"
   xmlns:rdf="http://www.w3.org/1999/02/22-rdf-syntax-ns#"
   xmlns:svg="http://www.w3.org/2000/svg"
   xmlns="http://www.w3.org/2000/svg"
   xmlns:xlink="http://www.w3.org/1999/xlink"
   version="1.1"
   id="APLogoFull"
   height="159.98199"
   width="356.93005">
  <g
     transform="translate(-0.50179508,-0.27147938)"
     id="text8148"
     style="font-style:normal;font-variant:normal;font-weight:bold;font-stretch:normal;font-size:48px;line-height:0%;font-family:'Nimbus Roman No9 L';-inkscape-font-specification:'Sans Bold';letter-spacing:0px;word-spacing:0px;display:inline;fill:#000000;fill-opacity:1;stroke:none"
     aria-label="ASSEGGIATE" />
  <path
     id="path98"
     style="font-style:normal;font-variant:normal;font-weight:bold;font-stretch:normal;font-size:48px;line-height:0%;font-family:'Nimbus Roman No9 L';-inkscape-font-specification:'Nimbus Roman No9 L Bold';letter-spacing:0px;word-spacing:0px;fill:#000000;fill-opacity:1;stroke:none"
     d="m 325.6803,102.20513 h -11.22656 l -1.33594,3.09375 q -0.65625,1.54687 -0.65625,2.55469 0,1.33593 1.07812,1.96875 0.63282,0.375 3.11719,0.5625 v 0.86718 h -10.57031 v -0.86718 q 1.71094,-0.25782 2.8125,-1.40625 1.10156,-1.17188 2.71875,-4.80469 l 11.36719,-25.359376 h 0.44531 L 334.89124,104.877 q 1.64062,3.70313 2.69531,4.66407 0.79687,0.72656 2.25,0.84375 v 0.86718 h -15.375 v -0.86718 h 0.63281 q 1.85156,0 2.60156,-0.51563 0.51563,-0.375 0.51563,-1.07812 0,-0.42188 -0.14063,-0.86719 -0.0469,-0.21094 -0.70312,-1.75781 z m -0.79688,-1.73438 -4.73437,-10.945308 -4.875,10.945308 z m -20.25,9.91407 v 0.86718 h -16.61718 v -0.86718 h 1.05468 q 1.38282,0 2.22657,-0.49219 0.60937,-0.32813 0.9375,-1.125 0.25781,-0.5625 0.25781,-2.95313 V 84.908254 q 0,-2.4375 -0.25781,-3.046875 -0.25782,-0.609375 -1.05469,-1.054687 -0.77344,-0.46875 -2.10938,-0.46875 h -1.05468 v -0.867188 h 16.61718 v 0.867188 h -1.05468 q -1.38282,0 -2.22657,0.492187 -0.60937,0.328125 -0.96093,1.125 -0.25782,0.5625 -0.25782,2.953125 V 105.8145 q 0,2.4375 0.25782,3.04688 0.28125,0.60937 1.05468,1.07812 0.79688,0.44532 2.13282,0.44532 z m -51.63281,0.86718 v -0.86718 h 1.05469 q 1.38281,0 2.10937,-0.42188 0.75,-0.44531 1.10157,-1.19531 0.21093,-0.49219 0.21093,-2.95313 V 84.908254 q 0,-2.4375 -0.25781,-3.046875 -0.25781,-0.609375 -1.05469,-1.054687 -0.77343,-0.46875 -2.10937,-0.46875 h -1.05469 v -0.867188 h 14.22656 q 5.69532,0 9.16407,1.546875 4.24218,1.898438 6.42187,5.742188 2.20313,3.84375 2.20313,8.695312 0,3.351563 -1.07813,6.187501 -1.07812,2.8125 -2.78906,4.66406 -1.71094,1.82813 -3.96094,2.95313 -2.22656,1.10156 -5.46094,1.71093 -1.42968,0.28125 -4.5,0.28125 z M 265.1178,81.275442 v 24.796878 q 0,1.96875 0.1875,2.41406 0.1875,0.44531 0.63281,0.67969 0.63281,0.35156 1.82813,0.35156 3.91406,0 5.97656,-2.67188 2.8125,-3.60937 2.8125,-11.203121 0,-6.117187 -1.92188,-9.773437 -1.52343,-2.859375 -3.91406,-3.890625 -1.6875,-0.726563 -5.60156,-0.703125 z m -27.46875,20.929688 h -11.22656 l -1.33594,3.09375 q -0.65625,1.54687 -0.65625,2.55469 0,1.33593 1.07812,1.96875 0.63282,0.375 3.11719,0.5625 V 111.252 H 218.0553 v -0.86718 q 1.71094,-0.25782 2.8125,-1.40625 1.10156,-1.17188 2.71875,-4.80469 l 11.36719,-25.359376 h 0.44531 L 246.85999,104.877 q 1.64062,3.70313 2.69531,4.66407 0.79687,0.72656 2.25,0.84375 v 0.86718 h -15.375 v -0.86718 h 0.63281 q 1.85156,0 2.60156,-0.51563 0.51563,-0.375 0.51563,-1.07812 0,-0.42188 -0.14063,-0.86719 -0.0469,-0.21094 -0.70312,-1.75781 z m -0.79688,-1.73438 -4.73437,-10.945308 -4.875,10.945308 z m -29.88281,-6.070308 q 4.52344,1.054687 6.35156,2.554687 2.625,2.132813 2.625,5.531251 0,3.58594 -2.88281,5.92969 -3.53906,2.83593 -10.28906,2.83593 h -16.14844 v -0.86718 q 2.20313,0 2.97656,-0.39844 0.79688,-0.42188 1.10157,-1.07813 0.32812,-0.65625 0.32812,-3.23437 V 85.048879 q 0,-2.578125 -0.32812,-3.234375 -0.30469,-0.679687 -1.10157,-1.078125 -0.79687,-0.398437 -2.97656,-0.398437 v -0.867188 h 15.23438 q 5.46093,0 7.73437,0.984375 2.27344,0.960938 3.58594,2.90625 1.3125,1.921875 1.3125,4.101563 0,2.296875 -1.66406,4.101562 -1.66407,1.78125 -5.85938,2.835938 z m -8.53125,-0.632813 q 3.32813,0 4.89844,-0.75 1.59375,-0.75 2.4375,-2.109375 0.84375,-1.359375 0.84375,-3.46875 0,-2.109375 -0.84375,-3.445312 -0.82031,-1.359375 -2.36719,-2.0625 -1.54687,-0.703125 -4.96875,-0.679688 z m 0,1.828125 v 10.195316 l -0.0234,1.17187 q 0,1.26563 0.63282,1.92188 0.65625,0.63281 1.92187,0.63281 1.875,0 3.44531,-0.82031 1.59375,-0.84375 2.4375,-2.41407 0.84375,-1.59375 0.84375,-3.53906 0,-2.22656 -1.03125,-3.984373 -1.03125,-1.78125 -2.83593,-2.484375 -1.80469,-0.703125 -5.39063,-0.679688 z m -23.53125,-1.195312 q 4.52344,1.054687 6.35156,2.554687 2.625,2.132813 2.625,5.531251 0,3.58594 -2.88281,5.92969 -3.53906,2.83593 -10.28906,2.83593 h -16.14844 v -0.86718 q 2.20313,0 2.97656,-0.39844 0.79688,-0.42188 1.10157,-1.07813 0.32812,-0.65625 0.32812,-3.23437 V 85.048879 q 0,-2.578125 -0.32812,-3.234375 -0.30469,-0.679687 -1.10157,-1.078125 -0.79687,-0.398437 -2.97656,-0.398437 v -0.867188 h 15.23438 q 5.46093,0 7.73437,0.984375 2.27344,0.960938 3.58594,2.90625 1.3125,1.921875 1.3125,4.101563 0,2.296875 -1.66406,4.101562 -1.66407,1.78125 -5.85938,2.835938 z m -8.53125,-0.632813 q 3.32813,0 4.89844,-0.75 1.59375,-0.75 2.4375,-2.109375 0.84375,-1.359375 0.84375,-3.46875 0,-2.109375 -0.84375,-3.445312 -0.82031,-1.359375 -2.36719,-2.0625 -1.54687,-0.703125 -4.96875,-0.679688 z m 0,1.828125 v 10.195316 l -0.0234,1.17187 q 0,1.26563 0.63282,1.92188 0.65625,0.63281 1.92187,0.63281 1.875,0 3.44531,-0.82031 1.59375,-0.84375 2.4375,-2.41407 0.84375,-1.59375 0.84375,-3.53906 0,-2.22656 -1.03125,-3.984373 -1.03125,-1.78125 -2.83593,-2.484375 -1.80469,-0.703125 -5.39063,-0.679688 z M 340.1488,129.27887 v 12.9375 h 0.63281 q 3.02344,0 4.38281,-1.89843 1.35938,-1.89844 1.73438,-5.60157 h 0.89062 V 151.357 h -0.89062 q -0.28125,-2.71875 -1.19532,-4.45313 -0.89062,-1.73437 -2.08593,-2.32031 -1.19532,-0.60937 -3.46875,-0.60937 v 8.95312 q 0,2.625 0.21093,3.21094 0.23438,0.58594 0.84375,0.96094 0.60938,0.375 1.96875,0.375 h 1.89844 q 4.45313,0 7.125,-2.0625 2.69531,-2.0625 3.86719,-6.28125 h 0.86719 l -1.42969,10.10156 h -27.46875 v -0.86719 h 1.05469 q 1.38281,0 2.22656,-0.49219 0.60937,-0.32812 0.9375,-1.125 0.25781,-0.5625 0.25781,-2.95312 v -20.90625 q 0,-2.15625 -0.11719,-2.64844 -0.23437,-0.82031 -0.86718,-1.26562 -0.89063,-0.65625 -2.4375,-0.65625 h -1.05469 v -0.86719 h 26.60156 v 9.39844 h -0.89062 q -0.67969,-3.44532 -1.92188,-4.94532 -1.21875,-1.5 -3.46875,-2.20312 -1.3125,-0.42188 -4.92187,-0.42188 z m -14.85938,-1.82812 v 8.60156 h -0.84375 q -0.75,-2.97656 -1.66406,-4.26562 -0.91406,-1.3125 -2.50781,-2.08594 -0.89063,-0.42188 -3.11719,-0.42188 h -2.36719 v 24.51563 q 0,2.4375 0.25781,3.04687 0.28125,0.60938 1.05469,1.07813 0.79688,0.44531 2.15625,0.44531 h 1.05469 v 0.86719 h -16.64063 v -0.86719 h 1.05469 q 1.38281,0 2.22656,-0.49219 0.60938,-0.32812 0.96094,-1.125 0.25781,-0.5625 0.25781,-2.95312 v -24.51563 h -2.29687 q -3.21094,0 -4.66406,1.35938 -2.03907,1.89844 -2.57813,5.41406 h -0.89062 v -8.60156 z m -41.4375,22.73437 h -11.22656 l -1.33594,3.09375 q -0.65625,1.54688 -0.65625,2.55469 0,1.33594 1.07813,1.96875 0.63281,0.375 3.11718,0.5625 v 0.86719 h -10.57031 v -0.86719 q 1.71094,-0.25781 2.8125,-1.40625 1.10156,-1.17187 2.71875,-4.80469 l 11.36719,-25.35937 h 0.44531 l 11.46094,26.0625 q 1.64062,3.70312 2.69531,4.66406 0.79688,0.72656 2.25,0.84375 v 0.86719 h -15.375 v -0.86719 h 0.63281 q 1.85157,0 2.60157,-0.51562 0.51562,-0.375 0.51562,-1.07813 0,-0.42187 -0.14062,-0.86719 -0.0469,-0.21093 -0.70313,-1.75781 z m -0.79687,-1.73437 -4.73438,-10.94531 -4.875,10.94531 z m -20.25,9.91406 v 0.86719 h -16.61719 v -0.86719 h 1.05469 q 1.38281,0 2.22656,-0.49219 0.60937,-0.32812 0.9375,-1.125 0.25781,-0.5625 0.25781,-2.95312 v -20.90625 q 0,-2.4375 -0.25781,-3.04688 -0.25781,-0.60937 -1.05469,-1.05468 -0.77344,-0.46875 -2.10937,-0.46875 h -1.05469 v -0.86719 h 16.61719 v 0.86719 h -1.05469 q -1.38281,0 -2.22656,0.49218 -0.60938,0.32813 -0.96094,1.125 -0.25781,0.5625 -0.25781,2.95313 v 20.90625 q 0,2.4375 0.25781,3.04687 0.28125,0.60938 1.05469,1.07813 0.79687,0.44531 2.13281,0.44531 z m -21.77344,-31.64062 v 11.20312 h -0.86719 q -1.57031,-4.59375 -4.71094,-6.98437 -3.14062,-2.39063 -6.86718,-2.39063 -3.5625,0 -5.92969,2.01563 -2.36719,1.99218 -3.35156,5.57812 -0.98438,3.58594 -0.98438,7.35938 0,4.57031 1.07813,8.01562 1.07812,3.44531 3.46875,5.0625 2.41406,1.61719 5.71875,1.61719 1.14843,0 2.34375,-0.23438 1.21875,-0.25781 2.48437,-0.72656 v -6.60937 q 0,-1.875 -0.25781,-2.41407 -0.25781,-0.5625 -1.07813,-1.00781 -0.79687,-0.44531 -1.94531,-0.44531 h -0.82031 v -0.86719 h 15.44531 v 0.86719 q -1.75781,0.11719 -2.46094,0.49219 -0.67968,0.35156 -1.05468,1.19531 -0.21094,0.44531 -0.21094,2.17969 v 6.60937 q -3.04688,1.35938 -6.35156,2.03906 -3.28125,0.70313 -6.82032,0.70313 -4.52343,0 -7.52343,-1.21875 -2.97657,-1.24219 -5.27344,-3.23438 -2.27344,-2.01562 -3.5625,-4.52343 -1.64063,-3.23438 -1.64063,-7.24219 0,-7.17188 5.03907,-12.11719 5.03906,-4.94531 12.67968,-4.94531 2.36719,0 4.26563,0.375 1.03125,0.1875 3.32812,1.07812 2.32032,0.86719 2.74219,0.86719 0.65625,0 1.21875,-0.46875 0.5625,-0.49219 1.03125,-1.82812 z m -37.3125,0 v 11.20312 h -0.86719 q -1.57031,-4.59375 -4.71094,-6.98437 -3.14062,-2.39063 -6.86718,-2.39063 -3.5625,0 -5.92969,2.01563 -2.36719,1.99218 -3.35156,5.57812 -0.98438,3.58594 -0.98438,7.35938 0,4.57031 1.07813,8.01562 1.07812,3.44531 3.46875,5.0625 2.41406,1.61719 5.71875,1.61719 1.14843,0 2.34375,-0.23438 1.21875,-0.25781 2.48437,-0.72656 v -6.60937 q 0,-1.875 -0.25781,-2.41407 -0.25781,-0.5625 -1.07813,-1.00781 -0.79687,-0.44531 -1.94531,-0.44531 h -0.82031 v -0.86719 h 15.44531 v 0.86719 q -1.75781,0.11719 -2.46094,0.49219 -0.67968,0.35156 -1.05468,1.19531 -0.21094,0.44531 -0.21094,2.17969 v 6.60937 q -3.04688,1.35938 -6.35156,2.03906 -3.28125,0.70313 -6.82032,0.70313 -4.52343,0 -7.52343,-1.21875 -2.97657,-1.24219 -5.27344,-3.23438 -2.27344,-2.01562 -3.5625,-4.52343 -1.64063,-3.23438 -1.64063,-7.24219 0,-7.17188 5.03907,-12.11719 5.03906,-4.94531 12.67968,-4.94531 2.36719,0 4.26563,0.375 1.03125,0.1875 3.32812,1.07812 2.32032,0.86719 2.74219,0.86719 0.65625,0 1.21875,-0.46875 0.5625,-0.49219 1.03125,-1.82812 z m -52.10156,2.55468 v 12.9375 h 0.63281 q 3.02344,0 4.38281,-1.89843 1.35938,-1.89844 1.73438,-5.60157 h 0.89062 V 151.357 h -0.89062 q -0.28125,-2.71875 -1.19532,-4.45313 -0.89062,-1.73437 -2.08593,-2.32031 -1.19532,-0.60937 -3.46875,-0.60937 v 8.95312 q 0,2.625 0.21093,3.21094 0.23438,0.58594 0.84375,0.96094 0.60938,0.375 1.96875,0.375 h 1.89844 q 4.45313,0 7.125,-2.0625 2.69531,-2.0625 3.86719,-6.28125 h 0.86719 l -1.42969,10.10156 h -27.46875 v -0.86719 h 1.05469 q 1.38281,0 2.22656,-0.49219 0.60937,-0.32812 0.9375,-1.125 0.25781,-0.5625 0.25781,-2.95312 v -20.90625 q 0,-2.15625 -0.11719,-2.64844 -0.23437,-0.82031 -0.86718,-1.26562 -0.89063,-0.65625 -2.4375,-0.65625 h -1.05469 v -0.86719 h 26.60156 v 9.39844 h -0.89062 q -0.67969,-3.44532 -1.92188,-4.94532 -1.21875,-1.5 -3.46875,-2.20312 -1.3125,-0.42188 -4.92187,-0.42188 z m -17.25,-2.55468 0.25781,10.59375 h -0.96094 q -0.67969,-3.98438 -3.35156,-6.39844 -2.64844,-2.4375 -5.74219,-2.4375 -2.39062,0 -3.79687,1.28906 -1.38282,1.26563 -1.38282,2.92969 0,1.05469 0.49219,1.875 0.67969,1.10156 2.17969,2.17969 1.10156,0.77343 5.08594,2.74218 5.57812,2.74219 7.52343,5.17969 1.92188,2.4375 1.92188,5.57813 0,3.98437 -3.11719,6.86718 -3.09375,2.85938 -7.875,2.85938 -1.5,0 -2.83594,-0.30469 -1.33593,-0.30469 -3.35156,-1.14844 -1.125,-0.46875 -1.85156,-0.46875 -0.60938,0 -1.28906,0.46875 -0.67969,0.46875 -1.10157,1.42969 h -0.86718 v -12 h 0.86718 q 1.03125,5.0625 3.96094,7.73438 2.95313,2.64843 6.35156,2.64843 2.625,0 4.17188,-1.42968 1.57031,-1.42969 1.57031,-3.32813 0,-1.125 -0.60937,-2.17969 -0.58594,-1.05468 -1.80469,-1.99218 -1.21875,-0.96094 -4.3125,-2.48438 -4.33594,-2.13281 -6.23438,-3.63281 -1.89843,-1.5 -2.92968,-3.35156 -1.00782,-1.85157 -1.00782,-4.07813 0,-3.79687 2.78907,-6.46875 2.78906,-2.67187 7.03125,-2.67187 1.54687,0 3,0.375 1.10156,0.28125 2.67187,1.05468 1.59375,0.75 2.22656,0.75 0.60938,0 0.96094,-0.375 0.35156,-0.375 0.65625,-1.80468 z m -26.71875,0 0.25781,10.59375 h -0.96094 q -0.67969,-3.98438 -3.35156,-6.39844 -2.64844,-2.4375 -5.742183,-2.4375 -2.390625,0 -3.796875,1.28906 -1.382813,1.26563 -1.382813,2.92969 0,1.05469 0.492188,1.875 0.679687,1.10156 2.179687,2.17969 1.101563,0.77343 5.085936,2.74218 5.57812,2.74219 7.52343,5.17969 1.92188,2.4375 1.92188,5.57813 0,3.98437 -3.11719,6.86718 -3.09375,2.85938 -7.874993,2.85938 -1.5,0 -2.835938,-0.30469 -1.335937,-0.30469 -3.351562,-1.14844 -1.125,-0.46875 -1.851563,-0.46875 -0.609375,0 -1.289062,0.46875 -0.679688,0.46875 -1.101563,1.42969 h -0.867187 v -12 h 0.867187 q 1.03125,5.0625 3.960938,7.73438 2.953125,2.64843 6.351562,2.64843 2.624991,0 4.171871,-1.42968 1.57031,-1.42969 1.57031,-3.32813 0,-1.125 -0.60937,-2.17969 -0.58594,-1.05468 -1.80469,-1.99218 -1.21875,-0.96094 -4.312496,-2.48438 -4.335937,-2.13281 -6.234375,-3.63281 -1.898437,-1.5 -2.929687,-3.35156 -1.007813,-1.85157 -1.007813,-4.07813 0,-3.79687 2.789063,-6.46875 2.789062,-2.67187 7.03125,-2.67187 1.546875,0 2.999998,0.375 1.10156,0.28125 2.67187,1.05468 1.59375,0.75 2.22656,0.75 0.60938,0 0.96094,-0.375 0.35156,-0.375 0.65625,-1.80468 z M 70.383177,150.18512 H 59.156614 l -1.335937,3.09375 q -0.65625,1.54688 -0.65625,2.55469 0,1.33594 1.078125,1.96875 0.632812,0.375 3.117187,0.5625 V 159.232 H 50.789427 v -0.86719 q 1.710937,-0.25781 2.8125,-1.40625 1.101562,-1.17187 2.71875,-4.80469 L 67.687864,126.7945 h 0.445313 l 11.460937,26.0625 q 1.640625,3.70312 2.695313,4.66406 0.796875,0.72656 2.25,0.84375 v 0.86719 h -15.375 v -0.86719 h 0.632812 q 1.851563,0 2.601563,-0.51562 0.515625,-0.375 0.515625,-1.07813 0,-0.42187 -0.140625,-0.86719 -0.04687,-0.21093 -0.703125,-1.75781 z m -0.796875,-1.73437 -4.734375,-10.94531 -4.875,10.94531 z M 96.963049,5e-6 c -0.42102,0 -0.83442,0.0576 -1.25,0.125 -0.52568,0.0853 -1.10948,0.095 -1.5625,0.375 -0.25324,0.15651 -0.43952,0.43285002 -0.59375,0.6875 -0.18016,0.29747 -0.1422,0.71039 -0.375,0.96875 -0.46411,0.51506 -1.18669,0.74749 -1.84375,0.96875 -0.55845,0.18805 -1.17812,0.13921 -1.75,0.28125 -0.49551,0.12307 -1.01381,0.18386 -1.4375,0.46875 -0.24705,0.16612 -0.34255,0.52771 -0.59375,0.6875 -0.50898,0.32378 -1.25182,0.15982 -1.75,0.5 -0.53333,0.36419 -0.61358,1.18113 -1.15625,1.53125 -0.10556,0.0681 -0.22576,0.11845 -0.34375,0.15625 l 0.0078,6.136719 c 0.856083,1.435946 2.621968,3.019916 3.929688,3.230469 0.96805,0.155857 1.06562,-0.07322 0.90625,-2.244141 -0.17568,-2.393122 -0.15741,-2.445384 2.1875,-3.546875 1.30242,-0.611795 2.63484,-1.091797 2.96875,-1.091797 0.33391,0 0.69015,-1.0254702 0.78125,-2.2441406 0.1601,-2.141171 0.22985,-2.2070396 2.3125,-2.546875 0.36704,-0.059871 0.69954,-0.1045008 1,-0.1210938 0.90138,-0.049866 1.501988,0.1074411 1.874993,0.4550781 0.45472,0.4238001 1.50306,0.5568318 2.75,0.3945313 1.42916,-0.1859964 2.26047,0.00973 2.90625,0.6367187 1.33411,1.2945516 1.11011,1.8496094 -0.75,1.8496094 -1.29063,0 -1.61763,0.195094 -1.46875,0.9082031 0.11354,0.5437736 0.66014,0.9026924 1.34375,0.8808594 1.05437,-0.033671 1.1423,0.1846312 0.9375,2.5761724 -0.12287,1.434931 -0.57604,2.973154 -1,3.427734 -0.54796,0.587536 -0.62497,1.078353 -0.25,1.728516 0.70489,1.22233 1.5625,1.181165 1.5625,-0.0918 0,-0.564461 0.42295,-2.170359 0.96875,-3.546875 0.54581,-1.376527 1.17645,-2.921428 1.375,-3.457031 0.29265,-0.7894372 0.51543,-0.8500553 1.15625,-0.3339854 0.6049,0.4871344 0.62932,0.8668884 0.1875,1.6679694 -0.41285,0.748362 -0.38957,1.228358 0.0312,1.636719 0.32379,0.314199 0.58265,1.633037 0.59375,2.941406 l 0.0312,2.365234 1.75,-1.970703 c 1.99038,-2.255148 2.5,-2.101387 2.5,0.757813 0,1.102296 0.22971,2.001953 0.5,2.001953 0.53675,0 1.20531,-3.299523 1,-4.972656 -0.0892,-0.727209 0.20867,-1.099137 1.03125,-1.212891 0.9682,-0.133898 1.29346,0.204432 1.75,1.84961 0.2546,0.917474 0.73265,1.991868 1.15625,2.667968 l 0.0312,11.916016 c -0.66191,0.520019 -1.3102,1.048637 -1.9375,1.607422 -1.45762,1.298404 -2.44834,3.134771 -4.125,4.154297 -1.80243,1.096008 -3.97769,2.319663 -6.0625,1.910156 -1.69589,-0.333111 -2.63609,-2.166969 -3.9375,-3.273438 -1.6173,-1.375042 -3.12336,-2.863142 -4.812493,-4.154297 -1.31007,-1.0014 -2.7732,-1.802657 -4.09375,-2.791015 -2.10625,-1.576399 -3.50418,-4.443231 -6.09375,-5.033203 -1.19463,-0.272163 -2.56356,0.187339 -3.5625,0.878906 -0.5507,0.38125 -1.02451,1.019708 -1.40625,1.667969 l -0.01367,-4.695313 0.04492,30.767578 c -2.554681,6.308045 -5.113452,12.826623 -7.671875,19.351563 -0.489514,-0.410462 -0.99608,-0.810534 -1.541016,-1.189453 l -0.02734,-18.082032 0.175782,-0.04102 v -8.777344 c -1.33359,0.894462 -2.824961,1.559921 -4.373047,1.951172 -0.86403,0.218367 -1.88277,0.375312 -2.6875,0 -0.68704,-0.320419 -1.3637,-0.992313 -1.4375,-1.728516 -0.14944,-1.491358 2.60961,-2.538343 2.15625,-3.970703 -0.25803,-0.815219 -2.10496,-0.384212 -2.3125,-1.21289 -0.32361,-1.292096 2.43931,-1.982639 2.3125,-3.306641 -0.09348,-0.975996 -1.17956,-1.810342 -2.15625,-2.060547 -1.73135,-0.443527 -3.49436,0.716272 -5.15625,1.363281 -2.44697,0.952649 -4.84209,2.126403 -6.96875,3.638672 -2.34276,1.665942 -4.13347,3.983981 -6.25,5.914063 -1.28965,1.176043 -2.523,2.424959 -3.9375,3.457031 -1.4524,1.059718 -3.12925,1.803875 -4.65625,2.759766 -2.23355,1.398175 -4.18471,3.24611 -6.59375,4.335937 -1.17826,0.533032 -2.47973,0.792236 -3.75,1.060547 -1.94125,0.41004 -3.94547,1.160053 -5.90625,0.849609 -2.57483,-0.407663 -4.85767,-1.928752 -6.9375,-3.457031 -0.26243,-0.192838 -0.51326,-0.413975 -0.75,-0.636719 -0.10237,-0.07704 -0.20045,-0.176152 -0.28125,-0.302734 -0.0258,-0.02649 -0.06815,-0.03387 -0.09375,-0.06055 v -0.123047 c -0.11621,-0.210934 -0.22643,-0.434018 -0.34375,-0.605468 -0.29449,-0.430379 -0.5306,-0.911259 -0.71875,-1.394532 -0.18496,-0.475092 -0.33875,-0.982717 -0.40625,-1.486328 -0.0365,-0.272056 -0.21196,-0.636788 0,-0.818359 0.26983,-0.231137 0.73452,0.12865 1.09375,0.15039 0.12542,0.0078 0.24906,-0.0029 0.375,0 v -0.271484 c 0.93778,-0.0041 1.32115,-0.184478 1.5,-0.636719 0.18448,-0.466505 0.83552,-0.849609 1.4375,-0.849609 0.14825,0 0.28746,0.02232 0.40625,0.06055 0.98753,0.31809 0.94367,1.832788 -0.25,2.486328 -1.47287,0.806408 -0.09803,1.933513 1.40625,1.152344 1.0139,-0.526531 1.1177,-1.040873 1.0625,-4.972657 -0.0668,-4.752214 0.15673,-5.519531 1.65625,-5.519531 0.54349,0 1.12646,-0.335133 1.28125,-0.726562 0.47194,-1.193373 2.41391,-1.348356 3.78125,-0.304688 0.93158,0.711052 1.43664,0.819892 1.875,0.394531 0.43836,-0.425463 0.78479,-0.418943 1.34375,0.03125 0.65282,0.525725 1.82342,0.390914 2.625,-0.18164 0.36497,-0.127174 0.64192,-0.501541 0.84375,-0.88086 0.005,-0.0086 -0.005,-0.0206 0,-0.0293 0.0111,-0.0101 0.01975,-0.02155 0.03125,-0.03125 0.64422,-0.541958 1.71875,-0.482594 1.71875,0.242188 0,0.342514 0.36065,0.165605 0.78125,-0.392578 0.65038,-0.863154 1.48323,-1.012227 5.6875,-1.091797 2.71878,-0.05143 5.2831,-0.214645 5.6875,-0.365234 0.54319,-0.202259 0.66521,-0.952671 0.4375,-2.81836 -0.23958,-1.962928 -0.12457,-2.692781 0.5625,-3.246093 0.98962,-0.796958 3.3188,-0.957315 4.75,-0.332032 0.72926,0.318614 0.96875,0.189452 0.96875,-0.638672 0,-0.0328 -10e-4,-0.05772 0,-0.08984 0.2184,-0.249603 0.257,-0.56775 0.25,-0.910157 0.33165,-0.584799 0.94307,-0.753306 1.5,-0.21289 0.19925,0.193342 0.46157,0.302061 0.75,0.394531 0.0432,0.01388 0.08,0.049 0.125,0.06055 0.0195,0.0049 0.042,-0.0029 0.0625,0 1.03643,0.24116 2.52885,-0.06663 4.3125,-0.96875 2.14554,-1.08516 2.20076,-1.080286 3.3125,-0.123047 0.45462,0.391448 0.77563,0.585302 1,0.607422 0.10087,0.142816 0.20485,0.291579 0.3125,0.423828 0.22644,0.278189 0.41026,0.858883 0.75,0.728516 0.455789,-0.174917 0.430903,-0.652437 0.322265,-1.199219 -0.05511,0.151817 -0.143739,0.280965 -0.322265,0.351562 -0.33974,0.13435 -0.52356,-0.46331 -0.75,-0.75 -0.30552,-0.3868 -0.6037,-0.82144 -0.78125,-1.28125 -0.18935,-0.49037 0.12325,-1.19554 -0.28125,-1.53125 -0.22364,-0.18559 -0.64231,0.17411 -0.875,0 -0.45816,-0.3428 0.0717,-1.63305 -0.5,-1.65625 -0.44936,-0.0182 -0.1319,0.95199 -0.46875,1.25 -0.29915,0.26462 -0.88244,0.0547 -1.1875,0.3125 -0.43071,0.36402 -0.22554,1.16723 -0.65625,1.53125 -0.20337,0.17185 -0.53261,0.0922 -0.78125,0.1875 -0.58,0.22225 -1.09951,1.1504 -1.65625,0.875 -0.35211,-0.17418 0.0741,-0.86321 -0.1875,-1.15625 -0.15656,-0.17534 -0.48753,-0.31109 -0.6875,-0.1875 -0.44715,0.27635 0.10161,1.17106 -0.28125,1.53125 -0.18961,0.1784 -0.57005,0.27722 -0.78125,0.125 -0.53429,-0.3851 0.0744,-1.45604 -0.375,-1.9375 -0.25122,-0.26912 -0.70329,-0.3933 -1.0625,-0.3125 -0.29045,0.0653 -0.54206,0.33398 -0.6875,0.59375 -0.3994,0.71333 0.15408,1.78299 -0.375,2.40625 -0.26433,0.31139 -0.78509,0.47615 -1.1875,0.40625 -0.56643,-0.0985 -0.8004,-0.87458 -1.34375,-1.0625 -0.48827,-0.16888 -1.04972,-0.0631 -1.5625,0 -0.39643,0.0488 -0.80449,0.0921 -1.15625,0.28125 -0.46295,0.24899 -0.88386,0.61292 -1.15625,1.0625 -0.51952,0.85747 -0.67171,1.90968 -0.78125,2.90625 -0.0847,0.77101 0.43434,1.61557 0.09375,2.3125 -0.24387,0.49916 -0.8147,0.79921 -1.34375,0.96875 -0.33825,0.1084 -0.77434,0.20769 -1.0625,0 -0.16564,-0.11941 -0.0218,-0.44308 -0.1875,-0.5625 -0.20957,-0.15104 -0.58971,-0.17334 -0.78125,0 -0.24064,0.21776 0.14063,0.74441 -0.09375,0.96875 -0.42062,0.40247 -1.16809,0.07775 -1.75,0.09375 -0.35506,0.01 -0.73433,0.13594 -1.0625,0 -0.50628,-0.2097 -0.64997,-0.94654 -1.15625,-1.15625 -0.44749,-0.18535 -0.99149,-0.0827 -1.46875,0 -0.47299,0.0819 -0.88002,0.34467 -1.34375,0.46875 -0.34875,0.0933 -0.70294,0.1551 -1.0625,0.1875 -0.35376,0.0319 -0.72254,-0.10293 -1.0625,0 -0.33429,0.10122 -0.69753,0.29291 -0.875,0.59375 -0.19759,0.3349 0.05615,0.79749 -0.09375,1.15625 -0.2296,0.54936 -0.59925,1.2829 -1.1875,1.375 -0.48697,0.0762 -0.88213,-0.45319 -1.25,-0.78125 -0.42909,-0.38264 -0.52182,-1.17955 -1.0625,-1.375 -0.43479,-0.15718 -0.99282,0.0115 -1.34375,0.3125 -0.5508,0.47243 -0.0716,1.87948 -0.78125,2.03125 -0.53588,0.11461 -0.73713,-0.80322 -1.15625,-1.15625 -0.51391,-0.43289 -1.09171,-0.8231 -1.65625,-1.1875 -0.53509,-0.34539 -1.0204,-0.93265 -1.65625,-0.96875 -0.63503,-0.0361 -1.19022,0.47923 -1.75,0.78125 -0.47298,0.25519 -0.98473,0.47508 -1.34375,0.875 -0.48235,0.5373 -0.79523,1.23661 -0.96875,1.9375 -0.35705,1.44219 0.04885,2.9899 -0.09375,4.46875 -0.0913,0.94586 0.19828,2.168 -0.5,2.8125 -0.26209,0.24193 -0.71061,0.15195 -1.0625,0.09375 -0.31377,-0.0519 -0.5572,-0.41825 -0.875,-0.40625 -0.47643,0.018 -0.8201,0.48137 -1.25,0.6875 -0.398417,0.191037 -0.781441,0.408742 -1.181641,0.605469 -0.709576,-0.06955 -1.954805,0.462504 -2.695312,0.613281 -0.93656,0.19074 -2.047285,-0.611637 -2.865235,-0.117187 -0.5406792,0.32683 -0.2095671,1.51802 -0.8105467,1.712891 -0.51935,0.168399 -0.9018669,-0.67192 -1.4355469,-0.78711 -0.64443,-0.13911 -1.3293762,0.006 -1.9726563,0.150391 -0.6245599,0.14014 -1.1994387,0.445857 -1.7929687,0.685547 -0.64741,0.26145 -1.2689444,0.589032 -1.9277344,0.820312 -0.64411,0.22613 -1.97265622,0.552734 -1.9726562,0.552734 L 0,65.47461 c 10.07999,0.864 12.09375,3.17001 12.09375,13.25 v 63.65624 c 0,8.928 -1.85701,11.79225 -8.625,12.65625 -0.432,0 -1.88475,0.30575 -3.46875,0.59375 v 3.59375 h 48.093908 v -3.59375 c -11.37599,-1.44 -12.65625,-2.738 -12.65625,-13.25 V 115.5996 c 19.43998,-0.144 24.32026,-0.56425 30.65625,-3.15625 0.955042,-0.36551 1.861107,-0.77091 2.744141,-1.19336 h -14.59375 v -3.59375 c 6.91199,-1.296 8.65301,-3.45176 14.125,-16.84374 2.77355,-6.84846 5.53489,-13.9473 8.3125,-21.03125 1.81803,1.52156 3.26472,3.25326 4.375,5.1875 l -0.875,2.28125 h 1.96875 c 0.7276,1.7465 1.22291,3.61866 1.53125,5.625 h -5.65625 l -2.15625,5.625 c -3.024,7.77599 -4.1875,11.377991 -4.1875,13.24999 0,2.33258 1.28735,3.84624 4.3125,4.78125 -2.026409,1.81854 -4.410626,3.40557 -7.154297,4.71875 h 14.654297 v -3.59375 c -3.18852,-0.21617 -5.646651,-0.5753 -7.47461,-1.1367 5.273949,-4.7402 8.074219,-11.070387 8.074219,-18.41993 0,-1.825249 -0.128122,-3.564621 -0.382812,-5.22461 h 26.689444 c 4.896,11.23199 6.625,16.425762 6.625,19.59374 0,3.02399 -1.86626,4.46201 -6.90625,4.75 -0.72,0 -2.57775,0.14951 -4.59375,0.4375 v 3.59375 h 46.65625 v -3.59375 h -0.59375 c -5.61599,0 -7.92501,-3.03927 -15.125,-20.03124 L 120.43179,50.46875 120.33023,13.03711 c -0.18265,-0.399178 -0.3802,-0.740103 -0.58594,-0.953125 -0.662,-0.685416 -0.86147,-1.288407 -0.5625,-1.757813 0.20047,-0.314742 0.56393,-0.4599784 0.9375,-0.4550784 0.0623,5.9e-4 0.1252,0.02255 0.1875,0.03125 l 0.0195,1.9414064 -0.0195,-7.03125 c -0.4431,-0.18003 -0.988,-0.18506 -1.46875,-0.25 -0.6408,-0.0866 -1.33683,0.14557 -1.9375,-0.09375 -0.55309,-0.22046 -0.89519,-0.7647 -1.34375,-1.15625 -0.29293,-0.25569 -0.51155,-0.64306 -0.875,-0.78125 -0.69421,-0.26393 -1.47653,-0.0265 -2.21875,0 -0.45293,0.0162 -0.94817,-0.05865 -1.375,0.09375 -0.6328,0.22597 -1.06835,0.77991 -1.625,1.15625 -0.54167,0.3662 -1.06631,1.34442 -1.65625,1.0625 -0.55662,-0.26601 0.0297,-1.23508 -0.1875,-1.8125 -0.23656,-0.62891 -0.6956,-1.16707 -1.15625,-1.65625 -0.14174,-0.15053 -0.31409,-0.31575 -0.5,-0.40624998 -0.50708,-0.24677011 -1.0932,-0.40650004 -1.65625,-0.37500002 -0.47929,0.0269 -1.0358,0.13174993 -1.34375,0.5 -0.25204,0.30135 0.11224,0.90233 -0.1875,1.15625 -0.22175,0.18785 -0.59929,0.0919 -0.875,0 -0.30633,-0.10212 -0.63684,-0.30493 -0.78125,-0.59375 -0.14441,-0.28882 0.22833,-0.74041998 0,-0.96875 -0.29683,-0.29683001 -0.83625,0.0709 -1.249995,0 C 99.295541,0.5892 98.782619,0.24522997 98.213049,0.125 97.801099,0.0381 97.384079,-2.999999e-8 96.963049,0 Z m -3.875,5.5644531 c 1.17767,0 1.3816,1.5223215 0.28125,2.09375 -0.60576,0.3144804 -1.1329,0.311319 -1.3125,0.029297 -0.45075,-0.707714 0.23434,-2.1230469 1.03125,-2.123047 z m 5.53125,1.4863281 c -0.34831,0.041706 -0.6995,0.4721034 -1.34375,1.4257813 -1.34154,1.9858475 -0.86523,2.2760765 1.65625,1 0.845776,-0.4280212 1.765741,-0.6435995 2.031241,-0.484375 0.2655,0.1592244 0.46875,-0.1039421 0.46875,-0.5761719 0,-0.4722589 -0.28582,-0.7376329 -0.65625,-0.6074219 -0.37042,0.1302208 -1.053325,-0.079893 -1.499991,-0.4550781 -0.25873,-0.2173579 -0.44726,-0.3277694 -0.65625,-0.3027344 z m -11.9375,1.9101563 c 0.08134,-0.017563 0.15125,-0.00873 0.21875,0 0.07712,0.00932 0.1365,0.042309 0.1875,0.091797 0.73764,0.7157681 0.31664,1.7285155 -0.71875,1.7285155 -0.59269,0 -1.09375,-0.202739 -1.09375,-0.455078 0,-0.5249194 0.83689,-1.2424271 1.40625,-1.3652345 z m 41.406241,1.1953125 v 5.566407 c 0.3456,0.134267 0.64252,0.535203 0.75,1.24414 0.10601,0.699223 -0.17143,1.215587 -0.75,1.455078 v 1.212891 c 0.53117,-0.624846 1.14886,-1.21067 2.0625,-2 0.75379,-0.65123 1.18423,-0.928016 1.5625,-0.910156 0.22696,0.01071 0.42965,0.126329 0.6875,0.333984 0.54585,0.439577 1.59197,0.555357 3.03125,0.332031 1.54324,-0.239463 2.51609,-0.107451 3.34375,0.455079 0.64316,0.437132 1.71014,0.789062 2.375,0.789062 1.91316,0 8.45024,2.870205 10.4375,4.578125 0.89272,0.767225 2.23243,1.233349 3.78125,1.333984 2.48651,0.161573 3.37552,1.22035 2.1875,2.609375 -0.34742,0.406207 -0.3768,0.941681 -0.0625,1.423828 0.42184,0.647204 0.52425,0.625202 0.53125,-0.121093 0.0202,-2.157104 2.728,-1.15109 3.53125,1.304687 0.3006,0.919027 2.22523,2.869446 3.21875,3.365235 -0.49242,0.220105 -1.00141,0.390848 -1.53125,0.486328 -1.05342,0.1898 -2.16837,0.205063 -3.21875,0 -1.96162,-0.382958 -3.74225,-1.374525 -5.53125,-2.244141 -2.09931,-1.020448 -4.07299,-2.278305 -6.0625,-3.488281 -2.00035,-1.216565 -3.80116,-2.752168 -5.90625,-3.789063 -1.69598,-0.835382 -3.56045,-1.270418 -5.34375,-1.912109 -0.47684,-0.171587 -0.9356,-0.435955 -1.4375,-0.515625 -1.70456,-0.270582 -3.55982,-0.408382 -5.1875,0.152344 -0.9063,0.312219 -1.70291,0.827896 -2.46875,1.394531 v 27.255859 h 53.34375 c -0.37592,-2.15025 -0.81428,-4.27972 -1.34375,-6.375 -0.19778,-0.78267 -1.34,-0.9259 -1.9375,-1.46875 -3.29896,-2.99722 -5.92756,-6.67598 -9.03125,-9.875 -3.00536,-3.09767 -5.69976,-6.59153 -9.28125,-9 -0.73187,-0.49217 -1.64073,-0.68434 -2.4375,-1.0625 -1.60472,-0.76164 -3.21478,-1.54402 -4.75,-2.4375 -1.37009,-0.79736 -2.46571,-2.08999 -3.96875,-2.59375 -0.9511,-0.31876 -2.06217,0.13718 -3,-0.21875 -1.72107,-0.6532 -2.58525,-2.83054 -4.34375,-3.375 -1.01979,-0.31575 -2.15137,0.2071 -3.21875,0.1875 -1.32998,-0.0244 -2.69441,0.006 -3.96875,-0.375 -0.6642,-0.19883 -1.24319,-0.62233 -1.84375,-0.96875 -1.45221,-0.83766 -2.77744,-1.89863 -4.21875,-2.75 z m -27.90625,0.44336 c -0.17545,-0.01878 -0.489455,0.180224 -0.906241,0.697265 -0.5795,0.718882 -1.0555,1.512846 -1.0625,1.728516 -0.0239,0.78311 1.04983,0.349456 1.593746,-0.636719 0.592415,-1.074118 0.667415,-1.757822 0.374995,-1.789062 z m -24.876944,4.638672 c -0.27756,0.149792 -0.545685,0.311006 -0.810547,0.480468 -0.52249,0.33431 -1.03704,0.71085 -1.46875,1.15625 -0.22473,0.23187 -0.43893,0.48293 -0.5625,0.78125 -0.3495,0.8438 0.26929,2.07284 -0.40625,2.6875 -0.50213,0.4569 -1.3986,-0.12123 -2.03125,0.125 -0.70508,0.27441 -1.27132,0.85157 -1.75,1.4375 -0.30164,0.36922 -0.53226,0.78964 -0.65625,1.25 -0.09181,0.34085 -0.01423,0.766502 0.07813,1.19336 0.938164,-0.983384 2.344861,-2.044922 2.890625,-2.044922 0.23092,0 0.55844,-0.307904 0.875,-0.759766 0.22251,0.0056 0.43142,-0.03832 0.59375,-0.18164 0.408,-0.360242 0.3503,-0.934144 0.3125,-1.515625 0.6542,-1.243098 1.414515,-1.905492 2.935547,-2.53125 z m 39.470694,4.548828 c -0.0943,-0.04317 -0.22222,0.03329 -0.4375,0.242187 -0.67844,0.658323 -0.15397,2.789063 0.6875,2.789063 0.30805,0 0.39862,-0.363509 0.21875,-0.81836 -0.17988,-0.454841 -0.34375,-1.231945 -0.34375,-1.697265 0,-0.307494 -0.0307,-0.472445 -0.125,-0.515625 z m -8.84375,3.183594 c -0.15151,0.02316 -0.30171,0.150076 -0.4375,0.363281 -0.43785,0.687453 0.18478,2.609375 0.84375,2.609375 0.27637,0 0.5,-0.571527 0.5,-1.273438 0,-1.046143 -0.45171,-1.768698 -0.90625,-1.699218 z m 46.875,4.125 c -0.1111,-0.01366 -0.1875,0.07837 -0.1875,0.242187 0,0.697855 0.64041,1.319631 1,0.970703 0.15311,-0.14857 0.006,-0.569884 -0.34375,-0.910156 -0.19331,-0.187578 -0.35768,-0.289054 -0.46875,-0.302734 z m 11.53125,1.333984 c 0.97246,0.968466 1.89969,1.969129 2.84375,2.970703 -0.06,0.100363 -0.1269,0.203634 -0.1875,0.302734 -0.30356,0.496838 -0.91666,0.751635 -1.4375,1.03125 0.0786,-0.639886 -0.26181,-1.673861 -0.8125,-1.878906 -0.87089,-0.32429 -1.02366,-1.50492 -0.40625,-2.425781 z m -105.650382,3.96875 c -0.03835,-0.007 -0.08256,-0.0051 -0.130859,0.0039 -0.0644,0.01203 -0.14465,0.0454 -0.21875,0.08984 -0.29634,0.17772 -0.53125,0.562056 -0.53125,0.849609 0,0.287553 0.23491,0.35936 0.53125,0.181641 0.29634,-0.17772 0.53125,-0.562056 0.53125,-0.84961 0,-0.161745 -0.06658,-0.254269 -0.181641,-0.27539 z m -21.755859,5.824219 -0.40625,1.183593 c -0.22035,0.646999 -0.61322,1.181641 -0.875,1.181641 -0.26177,0 -0.46875,0.357732 -0.46875,0.789063 0,0.435686 0.46383,0.789062 1.0625,0.789062 0.59268,0 1.09375,-0.259322 1.09375,-0.546875 0,-0.287553 0.41891,-0.542792 0.9375,-0.576172 0.85565,-0.05502 0.85696,-0.06011 0.03125,-0.271484 -0.50037,-0.128106 -1.02748,-0.767175 -1.15625,-1.396485 z m 2.5,3.912109 c -0.328857,0 -0.52454,0.623184 -0.1875,1.152344 0.33946,0.532983 0.47375,0.53145 0.65625,0 0.12489,-0.36326 0.08525,-0.826269 -0.09375,-1 -0.13693,-0.132887 -0.26263,-0.163694 -0.375,-0.152344 z m 54.28125,0.146484 14.531241,34.96875 H 82.175939 c -0.325761,-0.783976 -0.697611,-1.540767 -1.115234,-2.269531 z m -65.8125,1.1875 c -0.29634,0 -0.62405,0.536604 -0.71875,1.183594 -0.11847,0.809426 0.11108,1.152344 0.71875,1.152344 0.60768,0 0.83722,-0.342918 0.71875,-1.152344 -0.0947,-0.64699 -0.4224,-1.183594 -0.71875,-1.183594 z m 14.724609,23.441407 c 11.95199,0 16.71875,6.35427 16.71875,21.90625 0,9.07199 -1.72475,14.531748 -5.46875,17.843748 -3.456,2.88 -8.21351,3.90625 -18.4375,3.90625 V 71.972662 c 0,-3.312 2.4355,-5.0625 7.1875,-5.0625 z" />
  <g
     transform="translate(-0.50179508,-0.27147938)"
     style="fill:#ffffff;stroke:#000000"
     id="g4210" />
</svg>
