<?xml version="1.0" encoding="UTF-8" standalone="no"?>
<svg
   xmlns:dc="http://purl.org/dc/elements/1.1/"
   xmlns:cc="http://creativecommons.org/ns#"
   xmlns:rdf="http://www.w3.org/1999/02/22-rdf-syntax-ns#"
   xmlns:svg="http://www.w3.org/2000/svg"
   xmlns="http://www.w3.org/2000/svg"
   height="24"
   width="24"
   id="svg16"
   xml:space="preserve"
   enable-background="new 0 0 512 512"
   viewBox="0 0 24 24"
   y="0px"
   x="0px"
   version="1.1"><metadata
     id="metadata22"><rdf:RDF><cc:Work
         rdf:about=""><dc:format>image/svg+xml</dc:format><dc:type
           rdf:resource="http://purl.org/dc/dcmitype/StillImage" /><dc:title></dc:title></cc:Work></rdf:RDF></metadata><defs
     id="defs20" /><g
     transform="matrix(0.05884632,0,0,0.05937329,-3.0647163,-3.1996266)"
     id="g29"><path
       d="m 309.865,120.933 c -0.797,4.281 -1.201,8.787 -1.201,13.385 v 205.907 c 0,2.769 1.586,5.363 4.145,6.421 9.119,3.771 15.238,11.474 15.238,20.57 v 10.109 c 0,3.076 2.493,5.568 5.568,5.568 h 86.572 c 3.357,0 6.078,-2.721 6.078,-6.078 V 120.809 c 0,-7.011 -1.222,-13.741 -3.465,-19.99 -10.17,-28.338 -41.338,-43.828 -70.324,-35.685 -28.678,8.057 -40.072,42.186 -42.611,55.799 z"
       id="path2" /><path
       d="M 153.799,355.313 V 126.115 c 0,-24.09 10.739,-45.71 27.673,-60.353 1.719,-1.487 0.72,-4.291 -1.553,-4.292 L 163.92,61.463 c -16.242,-0.865 -28.506,2.844 -37.512,11.376 -18.971,17.971 -20.56,54.028 -20.56,86.412 v 207.526 c 0,2.299 1.864,4.162 4.163,4.162 l 38.861,-0.002 c 2.706,0 4.9,-2.19 4.905,-4.896 z"
       id="path4" /><path
       d="m 181.126,82.901 c -2.773,3.708 -5.198,7.691 -7.227,11.901 -4.564,9.473 -7.122,20.094 -7.122,31.313 v 109.038 c 2.866,-1.114 5.416,-2.827 7.584,-4.928 4.271,-4.137 6.962,-9.888 6.962,-16.305 v -50.338 c 0,-9.9 7.629,-18.534 17.524,-18.83 10.239,-0.307 18.636,7.902 18.636,18.072 v 29.459 c 0,8.043 6.52,14.563 14.563,14.563 v 0 c 2.543,0 4.898,-0.71 6.979,-1.856 4.499,-2.478 7.583,-7.207 7.583,-12.707 v -11.006 -10e-4 c 0.001,-4.798 3.21,-8.802 7.585,-10.104 0.959,-0.286 1.955,-0.486 3.007,-0.486 5.851,0 10.593,4.743 10.593,10.592 v 38.785 c 0,6.88 4.173,12.785 10.126,15.325 2.005,0.855 4.211,1.331 6.528,1.331 v 0 c 0.361,0 0.701,-0.079 1.055,-0.102 0.885,-0.057 1.754,-0.155 2.598,-0.347 1.783,-0.405 3.467,-1.076 4.987,-2.007 0.925,-0.566 1.8,-1.204 2.597,-1.934 V 134.32 c 0,-1.245 0.026,-2.489 0.081,-3.731 0.006,-0.139 0.021,-0.276 0.027,-0.415 0.054,-1.104 0.121,-2.206 0.22,-3.306 0.015,-0.165 0.039,-0.328 0.055,-0.492 0.104,-1.071 0.217,-2.142 0.363,-3.208 0.045,-0.329 0.109,-0.656 0.159,-0.984 0.135,-0.898 0.269,-1.797 0.436,-2.691 0.002,-0.009 0.003,-0.017 0.005,-0.026 0.156,-0.84 0.334,-1.728 0.528,-2.648 0.057,-0.266 0.124,-0.553 0.184,-0.825 0.149,-0.687 0.305,-1.38 0.478,-2.103 0.087,-0.369 0.186,-0.753 0.279,-1.132 0.164,-0.658 0.332,-1.321 0.514,-2.003 0.115,-0.427 0.236,-0.863 0.358,-1.298 0.188,-0.673 0.385,-1.352 0.592,-2.043 0.135,-0.45 0.272,-0.903 0.417,-1.361 0.223,-0.713 0.461,-1.436 0.706,-2.165 0.151,-0.453 0.301,-0.902 0.461,-1.359 0.277,-0.792 0.577,-1.594 0.881,-2.399 0.153,-0.406 0.298,-0.808 0.458,-1.217 0.447,-1.144 0.922,-2.296 1.428,-3.455 0.031,-0.074 0.059,-0.146 0.091,-0.219 0.537,-1.227 1.112,-2.459 1.718,-3.694 0.188,-0.385 0.396,-0.771 0.593,-1.157 0.433,-0.852 0.871,-1.702 1.337,-2.552 0.256,-0.466 0.528,-0.929 0.795,-1.394 0.441,-0.771 0.892,-1.539 1.363,-2.304 0.301,-0.488 0.613,-0.974 0.927,-1.459 0.478,-0.74 0.972,-1.473 1.479,-2.203 0.334,-0.482 0.673,-0.964 1.021,-1.441 0.539,-0.739 1.103,-1.467 1.675,-2.192 0.352,-0.446 0.698,-0.894 1.062,-1.334 0.651,-0.786 1.336,-1.554 2.028,-2.318 0.323,-0.357 0.63,-0.722 0.962,-1.073 1.036,-1.096 2.109,-2.17 3.236,-3.208 1.13,-1.04 1.882,-2.247 2.319,-3.514 0.903,-2.617 0.412,-5.481 -1.091,-7.705 -1.502,-2.223 -4.002,-3.802 -7.172,-3.802 h -2.529 -75.126 c -4.285,0 -8.475,0.395 -12.555,1.11 -0.668,0.117 -1.34,0.222 -2.001,0.357 -2.351,0.481 -4.66,1.077 -6.922,1.78 -0.668,0.208 -1.323,0.444 -1.982,0.671 -1.573,0.54 -3.131,1.114 -4.653,1.758 -2.035,0.86 -4.017,1.819 -5.951,2.855 -2.173,1.165 -4.284,2.43 -6.317,3.804 -2.882,1.947 -5.616,4.096 -8.181,6.428 -3.42,3.108 -6.541,6.54 -9.314,10.248 z"
       id="path6" /><path
       d="m 458.236,404.234 c -1.968,-2.221 -7.47,-5.881 -22.195,-6.146 -0.56,-0.011 -1.103,-0.026 -1.688,-0.026 H 330.912 c -5.152,0 -10.248,1.882 -13.768,5.646 -0.386,0.413 -0.789,0.81 -1.207,1.189 -3.627,3.298 -8.428,5.327 -13.705,5.327 h -46.36 c -6.908,0 -13.617,-1.986 -19.629,-5.388 -0.195,-0.11 -0.393,-0.213 -0.583,-0.33 l -7.428,-4.574 c -1.607,-0.989 -3.274,-1.858 -4.984,-2.618 -5.365,-2.383 -11.183,-3.63 -17.097,-3.63 h -34.159 c -3.74,0 -7.184,-1.254 -9.968,-3.342 -0.266,-0.2 -0.532,-0.398 -0.786,-0.613 -0.336,-0.284 -0.955,-0.948 -1.563,-1.638 -1.117,-1.266 -2.727,-1.988 -4.415,-1.988 h -44.017 -7.584 -1.675 c -1.806,-0.063 -3.798,-0.076 -5.909,-0.037 -14.203,0.258 -33.975,2.961 -41.264,10.184 -1.877,1.857 -2.686,3.771 -2.625,6.201 l 0.027,1.061 -0.133,0.42 c 0.019,0.003 -0.1,2.826 2.894,6.092 3.973,4.33 15.448,11.602 47.669,11.602 h 61.335 c 3.959,0.07 37.663,1.306 43.596,23.258 l 0.11,0.412 c 0.499,1.277 5.934,12.777 39.393,12.777 l 105.343,0.016 c 0.19,0.023 21.843,1.051 28.168,-13.652 0.778,-1.976 9.626,-21.102 53.765,-21.102 l 0.522,0.018 c 4.106,0.27 16.091,-0.217 21.762,-5.534 2.139,-2.006 3.136,-4.538 3.136,-7.972 l 0.149,-1.5 c -0.016,0.003 0.158,-2.031 -1.686,-4.113 z"
       id="path8" /><path
       d="m 170.502,375.975 c -0.005,1.402 1.13,2.541 2.532,2.541 h 22.763 10.353 c 8.697,0 17.23,2.007 25.008,5.783 1.709,0.829 3.395,1.715 5.023,2.717 l 2.584,1.59 0.262,0.161 4.583,2.82 c 1.189,0.731 2.44,1.339 3.727,1.849 2.451,0.974 5.08,1.354 7.708,1.578 0.275,0.023 0.55,0.043 0.828,0.043 h 1.754 20.295 7.583 0.311 9.871 6.547 c 0.347,0 0.684,-0.035 1.012,-0.1 2.189,-0.432 4.144,-2.83 4.238,-5.061 0.001,-0.03 0.002,-0.062 0.002,-0.094 v -0.073 -6.835 -15.678 c 0,-2.014 -1.588,-4.131 -4.215,-5.674 -1.984,-1.164 -4.574,-1.966 -7.584,-2.14 -0.391,-0.022 -0.76,-0.079 -1.164,-0.079 -0.476,0 -0.941,0.065 -1.412,0.102 -1.235,0.094 -2.467,0.232 -3.654,0.584 l -1.354,0.402 -2.598,0.773 -3.556,1.057 -2.201,-7.195 c -0.435,-1.418 -1.085,-2.732 -1.826,-3.993 -3.734,-6.353 -11.033,-10.55 -19.156,-10.55 -1.561,0 -3.08,0.203 -4.569,0.498 -2.727,0.541 -5.3,1.525 -7.585,2.936 -3.223,1.988 -5.875,4.753 -7.583,8.095 -0.038,0.073 -0.089,0.138 -0.126,0.212 l -3.759,7.596 -7.133,-4.58 c -3.017,-1.935 -6.87,-3.001 -10.85,-3.001 -6.796,0 -12.954,3.087 -15.324,7.683 l -4.386,8.502 -7.277,-6.213 c -2.165,-1.846 -5.275,-2.906 -8.532,-2.906 -2.765,0 -5.305,0.781 -7.278,2.01 -2.338,1.459 -3.869,3.557 -3.869,5.874 0,0.184 0.022,0.367 0.042,0.548 z"
       id="path10" /></g></svg>