<?xml version="1.0" encoding="UTF-8" standalone="no"?>
<svg
   xmlns:dc="http://purl.org/dc/elements/1.1/"
   xmlns:cc="http://creativecommons.org/ns#"
   xmlns:rdf="http://www.w3.org/1999/02/22-rdf-syntax-ns#"
   xmlns:svg="http://www.w3.org/2000/svg"
   xmlns="http://www.w3.org/2000/svg"
   height="24"
   width="24"
   xml:space="preserve"
   viewBox="0 0 23.999999 23.999999"
   y="0px"
   x="0px"
   id="Capa_1"
   version="1.1"><metadata
   id="metadata42"><rdf:RDF><cc:Work
       rdf:about=""><dc:format>image/svg+xml</dc:format><dc:type
         rdf:resource="http://purl.org/dc/dcmitype/StillImage" /><dc:title></dc:title></cc:Work></rdf:RDF></metadata><defs
   id="defs40" />
<g
   transform="matrix(0.94439854,0,0,0.94432422,-9.4439854e-4,0)"
   id="g5">
	<g
   id="c13_monument">
		<path
   d="M 17.245,19.968 V 9.076 h -3.63 v 10.892 z m 5.447,0 V 9.076 H 19.061 V 19.968 Z M 24.508,6.938 12.709,0 0.908,6.938 c 0,0 -0.814,0.734 0,1.23 h 23.6 c 0,0 0.66,-0.54 0,-1.23 z M 11.801,19.968 V 9.076 H 8.17 v 10.892 z m -5.446,0 V 9.076 H 2.723 V 19.968 Z M 23.712,21.25 1.995,21.311 0.001,23.916 v 1.499 h 25.413 v -1.499 z"
   id="_x3C_Group_x3E__4_" />
	</g>
	<g
   id="Capa_1_134_">
	</g>
</g>
<g
   transform="translate(-0.001,-1.415)"
   id="g7">
</g>
<g
   transform="translate(-0.001,-1.415)"
   id="g9">
</g>
<g
   transform="translate(-0.001,-1.415)"
   id="g11">
</g>
<g
   transform="translate(-0.001,-1.415)"
   id="g13">
</g>
<g
   transform="translate(-0.001,-1.415)"
   id="g15">
</g>
<g
   transform="translate(-0.001,-1.415)"
   id="g17">
</g>
<g
   transform="translate(-0.001,-1.415)"
   id="g19">
</g>
<g
   transform="translate(-0.001,-1.415)"
   id="g21">
</g>
<g
   transform="translate(-0.001,-1.415)"
   id="g23">
</g>
<g
   transform="translate(-0.001,-1.415)"
   id="g25">
</g>
<g
   transform="translate(-0.001,-1.415)"
   id="g27">
</g>
<g
   transform="translate(-0.001,-1.415)"
   id="g29">
</g>
<g
   transform="translate(-0.001,-1.415)"
   id="g31">
</g>
<g
   transform="translate(-0.001,-1.415)"
   id="g33">
</g>
<g
   transform="translate(-0.001,-1.415)"
   id="g35">
</g>
</svg>